<svg width="181" height="60" viewBox="0 0 181 60" fill="none" xmlns="http://www.w3.org/2000/svg">
<g filter="url(#filter0_d_120_2213)">
<g clip-path="url(#clip0_120_2213)">
<path d="M8.86717 21.0961C11.5552 21.0961 13.7343 18.9756 13.7343 16.3598C13.7343 13.744 11.5552 11.6234 8.86717 11.6234C6.17911 11.6234 4 13.744 4 16.3598C4 18.9756 6.17911 21.0961 8.86717 21.0961Z" fill="#767676"/>
<path d="M22.3659 21.0959C25.0541 21.0959 27.2331 18.9753 27.2331 16.3595C27.2331 13.7437 25.0541 11.6232 22.3659 11.6232C19.6779 11.6232 17.4988 13.7437 17.4988 16.3595C17.4988 18.9753 19.6779 21.0959 22.3659 21.0959Z" fill="#767676"/>
<path d="M8.86717 34.6467C11.5552 34.6467 13.7343 32.5262 13.7343 29.9104C13.7343 27.2945 11.5552 25.1741 8.86717 25.1741C6.17911 25.1741 4 27.2945 4 29.9104C4 32.5262 6.17911 34.6467 8.86717 34.6467Z" fill="#767676"/>
<path d="M22.3659 34.6467C25.0541 34.6467 27.2331 32.5262 27.2331 29.9104C27.2331 27.2945 25.0541 25.1741 22.3659 25.1741C19.6779 25.1741 17.4988 27.2945 17.4988 29.9104C17.4988 32.5262 19.6779 34.6467 22.3659 34.6467Z" fill="#767676"/>
<path d="M36.4232 28.0503C39.1113 28.0503 41.2904 25.9297 41.2904 23.3139C41.2904 20.698 39.1113 18.5775 36.4232 18.5775C33.7352 18.5775 31.556 20.698 31.556 23.3139C31.556 25.9297 33.7352 28.0503 36.4232 28.0503Z" fill="#767676"/>
<path d="M36.4232 41.2003C39.1113 41.2003 41.2904 39.0798 41.2904 36.464C41.2904 33.8481 39.1113 31.7277 36.4232 31.7277C33.7352 31.7277 31.556 33.8481 31.556 36.464C31.556 39.0798 33.7352 41.2003 36.4232 41.2003Z" fill="#767676"/>
<path d="M8.86717 48.212C11.5552 48.212 13.7343 46.0914 13.7343 43.4756C13.7343 40.8599 11.5552 38.7393 8.86717 38.7393C6.17911 38.7393 4 40.8599 4 43.4756C4 46.0914 6.17911 48.212 8.86717 48.212Z" fill="#767676"/>
<path d="M22.3659 48.212C25.0541 48.212 27.2331 46.0914 27.2331 43.4756C27.2331 40.8599 25.0541 38.7393 22.3659 38.7393C19.6779 38.7393 17.4988 40.8599 17.4988 43.4756C17.4988 46.0914 19.6779 48.212 22.3659 48.212Z" fill="#767676"/>
<path d="M52.769 42.7755V16.0993H63.0537C65.4114 16.0993 67.425 16.8 69.0945 18.2014C70.764 19.5904 71.5988 21.2522 71.5988 23.1869C71.5988 24.3899 71.2355 25.5184 70.5091 26.5726C69.7954 27.6143 68.8906 28.3151 67.7946 28.6747C69.2601 28.96 70.4646 29.704 71.4076 30.907C72.3635 32.1099 72.8414 33.5238 72.8414 35.1485C72.8414 37.2815 72.0003 39.0859 70.318 40.5617C68.6357 42.0376 66.6094 42.7755 64.2389 42.7755H52.769ZM58.5613 26.8517H62.7861C63.6018 26.8517 64.2899 26.5912 64.8507 26.0703C65.4242 25.537 65.7109 24.8984 65.7109 24.1542C65.7109 23.4101 65.4305 22.7838 64.8698 22.2753C64.309 21.7668 63.6145 21.5127 62.7861 21.5127H58.5613V26.8517ZM58.5613 37.3621H63.7227C64.6149 37.3621 65.3732 37.0645 65.9976 36.4691C66.6222 35.8615 66.9343 35.1297 66.9343 34.2741C66.9343 33.4183 66.6222 32.6867 65.9976 32.0789C65.3859 31.4589 64.6531 31.1488 63.7992 31.1488H58.5613V37.3621ZM76.0721 15.9691C76.7348 15.3242 77.5249 15.0017 78.4425 15.0017C79.3601 15.0017 80.1503 15.3242 80.813 15.9691C81.4757 16.6015 81.8069 17.3581 81.8069 18.2386C81.8069 19.1315 81.4757 19.9004 80.813 20.5453C80.1503 21.1902 79.3601 21.5127 78.4425 21.5127C77.5249 21.5127 76.7348 21.1902 76.0721 20.5453C75.4093 19.9004 75.078 19.1315 75.078 18.2386C75.078 17.3581 75.4093 16.6015 76.0721 15.9691ZM75.6898 24.0612H81.2144V42.7755H75.6898V24.0612ZM98.9545 16.0993H104.479V42.7755H98.9545V40.5617C98.483 41.3307 97.7183 41.957 96.6605 42.4406C95.6154 42.9119 94.4876 43.1475 93.2768 43.1475C91.633 43.1475 90.1227 42.7135 88.7463 41.8454C87.3699 40.9772 86.2867 39.7991 85.4965 38.3108C84.7064 36.8103 84.3113 35.1732 84.3113 33.3997C84.3113 30.6961 85.178 28.4018 86.9111 26.5168C88.657 24.6316 90.7791 23.6891 93.2768 23.6891C94.4748 23.6891 95.6027 23.931 96.6605 24.4146C97.7183 24.8984 98.483 25.5184 98.9545 26.2749V16.0993ZM94.5004 38.0504C95.4308 38.0504 96.2973 37.8334 97.1002 37.3993C97.9159 36.9653 98.534 36.4071 98.9545 35.7251V31.1488C98.534 30.4419 97.9159 29.8652 97.1002 29.4187C96.2973 28.9722 95.4308 28.7491 94.5004 28.7491C93.1494 28.7491 92.0153 29.1956 91.0977 30.0885C90.1801 30.969 89.7213 32.0728 89.7213 33.3997C89.7213 34.7267 90.1801 35.8366 91.0977 36.7296C92.0153 37.6101 93.1494 38.0504 94.5004 38.0504ZM132.351 42.7755H125.45L119.467 34.0508L113.521 42.7755H106.697L116.102 29.0653L107.213 16.0993H114.152L119.543 24.024L124.953 16.0993H131.72L122.946 28.991L132.351 42.7755ZM138.22 43.1475C137.226 43.1475 136.378 42.8189 135.677 42.1616C134.989 41.4919 134.645 40.6796 134.645 39.7247C134.645 38.7822 134.989 37.9822 135.677 37.3249C136.378 36.6676 137.226 36.339 138.22 36.339C139.227 36.339 140.074 36.6676 140.762 37.3249C141.463 37.9698 141.814 38.7697 141.814 39.7247C141.814 40.6796 141.463 41.4919 140.762 42.1616C140.074 42.8189 139.227 43.1475 138.22 43.1475ZM159.21 24.0612H164.734V42.7755H159.21V40.5617C158.738 41.3307 157.973 41.957 156.916 42.4406C155.871 42.9119 154.743 43.1475 153.532 43.1475C151.888 43.1475 150.378 42.7135 149.002 41.8454C147.625 40.9772 146.542 39.7991 145.752 38.3108C144.961 36.8103 144.566 35.1732 144.566 33.3997C144.566 30.6961 145.433 28.4018 147.166 26.5168C148.912 24.6316 151.035 23.6891 153.532 23.6891C154.73 23.6891 155.858 23.931 156.916 24.4146C157.973 24.8984 158.738 25.5184 159.21 26.2749V24.0612ZM154.755 38.0504C155.686 38.0504 156.552 37.8334 157.355 37.3993C158.172 36.9653 158.79 36.4071 159.21 35.7251V31.1488C158.79 30.4419 158.172 29.8652 157.355 29.4187C156.552 28.9722 155.686 28.7491 154.755 28.7491C153.405 28.7491 152.271 29.1956 151.354 30.0885C150.435 30.969 149.976 32.0728 149.976 33.3997C149.976 34.7267 150.435 35.8366 151.354 36.7296C152.271 37.6101 153.405 38.0504 154.755 38.0504ZM168.979 15.9691C169.641 15.3242 170.431 15.0017 171.348 15.0017C172.266 15.0017 173.057 15.3242 173.719 15.9691C174.381 16.6015 174.713 17.3581 174.713 18.2386C174.713 19.1315 174.381 19.9004 173.719 20.5453C173.057 21.1902 172.266 21.5127 171.348 21.5127C170.431 21.5127 169.641 21.1902 168.979 20.5453C168.315 19.9004 167.985 19.1315 167.985 18.2386C167.985 17.3581 168.315 16.6015 168.979 15.9691ZM168.595 24.0612H174.12V42.7755H168.595V24.0612Z" fill="#767676"/>
</g>
</g>
<defs>
<filter id="filter0_d_120_2213" x="0" y="0" width="180.463" height="68" filterUnits="userSpaceOnUse" color-interpolation-filters="sRGB">
<feFlood flood-opacity="0" result="BackgroundImageFix"/>
<feColorMatrix in="SourceAlpha" type="matrix" values="0 0 0 0 0 0 0 0 0 0 0 0 0 0 0 0 0 0 127 0" result="hardAlpha"/>
<feOffset dy="4"/>
<feGaussianBlur stdDeviation="2"/>
<feComposite in2="hardAlpha" operator="out"/>
<feColorMatrix type="matrix" values="0 0 0 0 0 0 0 0 0 0 0 0 0 0 0 0 0 0 0.25 0"/>
<feBlend mode="normal" in2="BackgroundImageFix" result="effect1_dropShadow_120_2213"/>
<feBlend mode="normal" in="SourceGraphic" in2="effect1_dropShadow_120_2213" result="shape"/>
</filter>
<clipPath id="clip0_120_2213">
<rect width="172.463" height="36.6372" fill="white" transform="translate(4 11.6814)"/>
</clipPath>
</defs>
</svg>
