<svg width="202" height="190" viewBox="0 0 202 190" fill="none" xmlns="http://www.w3.org/2000/svg">
<path d="M27.8769 2.19449C28.1531 2.03156 28.4455 1.8795 28.7541 1.74373C32.8638 -0.102789 36.3238 0.755296 39.4427 3.99757C58.6864 24.0432 77.9735 44.0507 97.2497 64.0637C113.9 81.3504 130.528 98.6479 147.222 115.891C150.757 119.541 154.526 122.968 158.192 126.498L158.192 116.852C157.829 102.526 157.439 88.1988 157.12 73.872C157.006 68.6637 157.055 63.45 157.028 58.2418C157.12 53.9079 159.545 50.9209 163.661 50.0519C165.843 49.5903 168.014 49.0363 170.207 48.6507C175.199 47.7763 180.083 46.3154 185.146 45.7886" stroke="#BE79FF" stroke-miterlimit="10"/>
<path d="M185.146 45.7887C190.615 43.5132 196.127 46.0331 197.459 51.5021C197.795 52.887 197.897 54.3588 197.93 55.7925C198.493 78.8903 199.024 101.983 199.576 125.08C199.966 141.411 200.35 157.742 200.778 174.067C200.924 179.542 198.211 182.98 192.689 184.05C189.716 183.881 186.797 184.538 183.825 184.538C149.301 184.506 114.777 184.517 80.2528 184.511C78.6339 184.511 77.004 184.549 75.4284 184.033C73.5874 183.376 72.3203 182.013 71.1454 180.541C68.0103 175.512 68.8983 169.489 74.183 166.866C75.8886 166.165 77.6755 166.165 79.4785 166.165C99.5291 166.176 119.585 166.176 139.636 166.149C140.561 166.149 141.617 166.589 142.43 165.709C142.576 165.617 142.733 165.563 142.895 165.53" stroke="#BE79FF" stroke-miterlimit="10"/>
<path d="M185.146 45.789C182.357 46.5928 181.291 48.8032 180.679 51.3558C180.451 52.317 180.202 53.2837 180.121 54.2776C181.042 64.1728 180.056 74.1331 181.031 84.0283C181.074 84.4791 181.117 84.9298 181.107 85.3806C180.738 97.3938 181.561 109.391 181.767 121.393C181.94 131.212 182.06 141.042 182.428 151.209C180.002 148.89 177.647 146.728 175.584 144.323C171.284 139.315 166.519 134.775 161.852 130.137C161.505 129.795 161.197 129.447 160.921 129.089L158.186 126.498" stroke="#BE79FF" stroke-miterlimit="10"/>
<path d="M142.424 165.715C143.155 166.095 143.924 166.258 144.758 166.258C153.324 166.236 161.895 166.247 170.461 166.236C170.694 166.236 170.927 166.117 171.382 165.997C169.194 163.542 167.202 161.136 165.036 158.899C155.869 149.433 146.561 140.102 137.464 130.566C126.873 119.47 116.19 108.467 105.545 97.4261C95.6521 87.1616 85.7812 76.8863 75.894 66.6164C65.3787 55.7002 54.8201 44.8275 44.3752 33.8461C38.484 27.6494 32.3167 21.7188 26.5393 15.4135C25.6458 15.4624 24.7795 15.1691 23.8644 15.3755C17.2856 16.8419 10.658 18.091 4.06296 19.503C3.53232 19.6171 3.02335 19.8017 2.67681 20.2688C7.02479 25.7052 12.1362 30.4246 16.9336 35.4265C41.056 60.5663 65.2433 85.6464 89.4144 110.737C107.072 129.067 124.745 147.385 142.408 165.709L142.424 165.715Z" stroke="#BE79FF" stroke-miterlimit="10"/>
<path d="M52.5728 188.465C53.672 188.948 54.8308 188.997 56.0112 188.997C93.2912 188.986 130.577 189.041 167.857 188.916C173.006 188.9 177.971 187.01 183.05 186.135C186.283 185.576 189.477 184.756 192.683 184.05" stroke="#BE79FF" stroke-miterlimit="10"/>
<path d="M26.5502 15.4135C23.5721 10.2704 24.4818 4.87752 28.7485 1.73844C21.2059 3.23195 13.5983 4.44305 6.14768 6.30043C0.467689 7.7179 -1.17296 15.1637 2.69312 20.2688" stroke="#BE79FF" stroke-miterlimit="10"/>
<path d="M74.1831 166.871C67.274 168.289 60.3811 169.755 53.4612 171.102C46.4871 172.46 43.666 179.335 47.7324 185.261C48.8749 187.047 50.4181 188.226 52.5732 188.47C59.087 187.042 65.59 185.592 72.1147 184.218C72.7591 184.082 73.3926 184.001 73.9503 183.729L74.5134 183.631" stroke="#BE79FF" stroke-miterlimit="10"/>
</svg>
