<svg width="205" height="60" viewBox="0 0 205 60" fill="none" xmlns="http://www.w3.org/2000/svg">
<g filter="url(#filter0_d_120_2273)">
<g clip-path="url(#clip0_120_2273)">
<path fill-rule="evenodd" clip-rule="evenodd" d="M58.1734 29.8378C58.1734 29.8378 58.1734 29.8919 58.1734 30.0002C58.1734 30.0002 58.1734 30.325 58.1734 30.4874C58.1734 34.5477 56.5591 38.2832 53.8148 41.0442C50.9091 43.8052 46.8733 45.4293 42.6762 45.4293C37.8333 45.4293 34.1204 43.9676 31.2147 40.7194C31.1071 40.6111 31.0533 40.5028 31.0533 40.3946C30.838 40.6111 30.6228 40.8277 30.4075 41.0442C27.5018 43.9676 23.6275 45.5917 19.5918 45.5917H19.2689C15.2332 45.5917 11.3589 43.9676 8.45313 41.0442C5.5474 38.1208 3.93311 34.2229 3.93311 30.1626V30.0002C3.93311 21.0676 10.3903 14.4087 19.2689 14.4087C23.7889 14.4087 27.5018 15.8704 30.4075 18.9562C30.6228 19.1728 30.838 19.3893 31.0533 19.6059C31.2685 19.3893 31.4837 19.1728 31.699 18.9562C34.6047 16.0328 38.479 14.4087 42.5147 14.4087H42.8376C46.8733 14.4087 50.7476 16.0328 53.6534 18.9562C56.5591 21.8796 58.1734 25.6151 58.1734 29.513V29.8378ZM57.3662 30.4874H53.6534C53.4919 33.2484 52.2005 35.847 50.2634 37.6336C48.1648 39.5825 45.5819 40.557 42.6762 40.557C39.609 40.557 37.349 39.5825 35.2504 37.3087C34.8199 36.8756 34.3895 36.3343 33.959 35.6846C33.7437 35.3598 33.5285 35.0891 33.3133 34.8726C32.5061 33.4109 31.699 31.9491 30.8918 30.4874C30.8918 30.3792 30.8918 30.325 30.8918 30.325C30.7842 30.1085 30.6228 29.8378 30.4075 29.513C29.8694 28.322 29.2237 27.1851 28.4704 26.1023C28.3628 25.7775 28.2013 25.4527 27.9861 25.1279C27.5556 24.4782 27.0713 23.8827 26.5332 23.3413C24.5961 21.23 22.1746 20.2555 19.2689 20.2555C16.686 20.2555 14.426 21.0676 12.6503 22.8541C10.8746 24.4782 9.74457 26.9144 9.42171 29.513H13.296C14.1032 26.1023 16.3632 24.1534 19.2689 24.1534C22.4975 24.1534 24.2732 26.4272 25.8875 29.513C25.9951 29.8378 26.1566 30.1626 26.3718 30.4874C26.6947 31.0288 27.0175 31.6243 27.3404 32.274C27.7709 33.3567 28.309 34.4395 28.9547 35.5222C29.0623 35.847 29.2237 36.1719 29.439 36.4967C29.9771 37.3629 30.5152 38.1749 31.0533 38.9328C31.2685 39.1494 31.4837 39.4201 31.699 39.7449C31.9142 39.9615 32.1833 40.2321 32.5061 40.557C35.089 43.318 38.479 44.6173 42.6762 44.6173C50.7476 44.6173 57.0434 38.608 57.3662 30.4874ZM28.7932 41.369C28.3628 41.0442 27.9323 40.7194 27.5018 40.3946H27.3404C26.2642 41.9104 24.9727 43.1556 23.4661 44.13L22.9818 44.4548L23.4661 44.2924C25.4032 43.7511 27.1789 42.8307 28.7932 41.5314V41.369ZM21.6903 43.9676C23.6275 43.1556 25.2418 41.6938 26.5332 39.9073C25.9951 39.5825 25.4032 39.2577 24.7575 38.9328H24.5961V39.0953C23.7889 40.8818 22.8204 42.5059 21.6903 43.8052L21.3675 44.13L21.6903 43.9676ZM23.7889 38.7704V38.608C22.4975 38.2832 21.2061 38.1208 19.9146 38.1208V44.2924C21.5289 42.9931 22.8203 41.0442 23.7889 38.7704ZM4.74025 29.513H8.45313C8.77599 26.5896 10.0674 23.991 12.0046 22.2044C13.9417 20.2555 16.5246 19.281 19.2689 19.281C23.4661 19.281 26.2104 21.23 28.309 23.991C28.5242 24.3158 28.7394 24.5865 28.9547 24.803C29.9232 26.2647 30.7304 27.8889 31.5375 29.513C31.6452 29.6212 31.699 29.7837 31.699 30.0002C31.8066 30.1085 31.9142 30.2168 32.0218 30.325C32.5599 31.5161 33.098 32.5988 33.6361 33.5733C33.8514 33.8981 34.0666 34.2229 34.2818 34.5477C34.8199 35.3057 35.358 36.0094 35.8961 36.6591C37.8333 38.608 40.0933 39.7449 42.6762 39.7449C45.259 39.7449 47.6805 38.7704 49.6176 36.9839C51.3934 35.3598 52.5234 32.9236 52.8462 30.4874V30.325H48.8105V30.4874C47.8419 33.7357 45.5819 35.6846 42.6762 35.6846C39.7704 35.6846 37.9947 33.4109 36.3804 30.325C36.1652 30.1085 36.0038 29.8378 35.8961 29.513C35.5733 28.9716 35.2504 28.3761 34.9276 27.7264C34.4433 26.752 33.7976 25.6151 33.3133 24.4782C33.098 24.1534 32.8828 23.8286 32.6675 23.5037C32.1294 22.6375 31.5913 21.8255 31.0533 21.0676C30.838 20.851 30.6228 20.6345 30.4075 20.4179C30.1923 20.0931 29.9232 19.7683 29.6004 19.4435C26.8561 16.6825 23.4661 15.2207 19.2689 15.2207C15.2332 15.2207 11.6817 16.6825 8.93742 19.281C6.35455 21.8796 4.90168 25.4527 4.74025 29.513ZM24.7575 30.4874H19.9146V37.1463C21.4213 37.2546 22.8204 37.4711 24.1118 37.796C24.7575 36.1719 25.0804 34.5477 25.0804 32.9236C25.0804 32.0574 24.9727 31.2454 24.7575 30.4874ZM24.7575 29.513V29.3506C23.6275 27.2392 22.0132 24.9654 19.2689 24.9654C16.8475 24.9654 15.0717 26.5896 14.2646 29.3506V29.513H24.7575ZM18.946 30.325H14.1032V30.4874C13.8879 31.2454 13.7803 32.0574 13.7803 32.9236C13.7803 34.3853 14.1032 36.1719 14.7489 37.796C16.1479 37.3629 17.547 37.1463 18.946 37.1463V30.325ZM18.946 37.9584C17.6546 37.9584 16.3632 38.1749 15.0717 38.608C16.0403 41.0442 17.3317 42.9931 18.946 44.13V37.9584ZM17.1703 43.9676H17.4932L17.1703 43.8052C16.0403 42.5059 14.9103 40.8818 14.2646 38.9328H14.1032C13.4574 39.1494 12.8655 39.4201 12.3274 39.7449L12.166 39.9073H12.3274C13.6189 41.6938 15.2332 43.1556 17.1703 43.9676ZM15.8789 44.2924L15.556 43.9676C14.0494 43.1014 12.7041 41.9104 11.5203 40.3946C10.9822 40.6111 10.5517 40.8818 10.2289 41.2066L10.0674 41.369H10.2289C11.7355 42.6683 13.5113 43.5887 15.556 44.13L15.8789 44.2924ZM9.26028 40.7194H9.42171C9.85219 40.2863 10.3365 39.9073 10.8746 39.5825C9.26028 36.9839 8.2917 33.8981 8.2917 30.6499V30.4874H4.57882C4.74025 34.3853 6.35455 38.1208 9.26028 40.7194ZM12.8117 32.9236C12.8117 32.1657 12.9193 31.3536 13.1346 30.4874H9.09885V30.6499C9.09885 33.7357 10.0674 36.6591 11.5203 39.0953L11.6817 39.2577C12.3274 38.8246 13.027 38.4998 13.7803 38.2832V38.1208C13.1346 36.4967 12.8117 34.7101 12.8117 32.9236ZM24.7575 38.1208V38.2832H24.9189C25.5647 38.4998 26.2642 38.7704 27.0175 39.0953C27.5556 38.3373 27.9861 37.5794 28.309 36.8215C27.5018 35.3598 26.6947 33.7357 26.0489 32.4364L25.7261 31.6243C25.7261 32.0574 25.7261 32.4905 25.7261 32.9236C25.7261 34.7101 25.4032 36.4967 24.9189 38.1208H24.7575ZM32.3447 19.281C32.0218 19.6059 31.699 19.9848 31.3761 20.4179C31.9142 21.0676 32.3985 21.7714 32.829 22.5293C33.1518 21.7714 33.5285 21.1217 33.959 20.5803V20.4179C33.4209 20.0931 32.9366 19.7141 32.5061 19.281H32.3447ZM33.1518 18.6314V18.7938C33.5823 19.1186 34.0128 19.4435 34.4433 19.7683H34.6047C35.6809 18.1442 36.9723 16.899 38.479 16.0328L38.9633 15.708L38.479 15.8704C36.5419 16.4118 34.7661 17.3321 33.1518 18.6314ZM40.2547 16.0328C38.3176 16.8449 36.7033 18.3066 35.4118 20.0931C35.9499 20.4179 36.5419 20.6886 37.1876 20.9052L37.349 21.0676V20.9052C37.9947 19.1186 39.1247 17.3321 40.2547 16.1952L40.5776 15.8704L40.2547 16.0328ZM38.1561 21.23C39.4476 21.6631 40.739 21.8796 42.0305 21.8796V15.708C40.4162 17.0073 39.1247 18.9562 38.1561 21.23ZM37.0261 21.8796H36.8647C36.219 21.5548 35.5733 21.23 34.9276 20.9052H34.7661C34.228 21.6631 33.7976 22.4751 33.4747 23.3413C34.2818 24.6406 35.089 26.1023 35.8961 27.8889C36.0038 27.9971 36.0576 28.1595 36.0576 28.3761C36.0576 27.943 36.0576 27.5099 36.0576 27.0768C36.0576 25.4527 36.3804 23.6662 37.0261 21.8796ZM37.1876 29.513H42.0305V22.6917C40.5238 22.6917 39.1247 22.4751 37.8333 22.042V22.2044C37.1876 23.8286 36.8647 25.4527 36.8647 27.0768C36.8647 27.8347 36.9723 28.6468 37.1876 29.513ZM37.1876 30.4874C37.2952 30.704 37.349 30.8664 37.349 30.9747C38.479 32.7612 39.9319 34.8726 42.5147 34.8726C44.9362 34.8726 46.8733 33.2484 47.6805 30.4874H37.1876ZM42.8376 22.8541V29.513H47.8419C47.9495 28.6468 48.0033 27.8347 48.0033 27.0768C48.0033 25.4527 47.6805 23.8286 47.1962 22.2044H47.0348C45.7433 22.5293 44.3981 22.7458 42.999 22.8541H42.8376ZM42.6762 21.8796H42.8376C44.129 21.8796 45.4205 21.6631 46.7119 21.23C45.7433 18.9562 44.4519 17.0073 42.8376 15.708H42.6762V21.8796ZM44.2905 15.8704L44.4519 16.1952C45.7433 17.4945 46.7119 19.1186 47.5191 20.9052V21.0676C48.1648 20.7427 48.8105 20.4179 49.4562 20.0931C48.1648 18.3066 46.389 16.8449 44.6133 16.0328L44.2905 15.8704ZM46.2276 15.8704C47.7343 16.8449 49.0795 18.09 50.2634 19.6059C50.6938 19.3893 51.1243 19.0645 51.5548 18.6314C50.0481 17.3321 48.2724 16.4118 46.2276 15.8704ZM52.5234 29.513V29.3506C52.5234 26.2647 51.7162 23.3413 50.1019 20.9052C49.3486 21.23 48.6491 21.5007 48.0033 21.7172V21.8796C48.4876 23.5037 48.8105 25.4527 48.8105 27.0768C48.8105 27.8347 48.7567 28.6468 48.6491 29.513H52.5234ZM52.3619 19.281C51.8238 19.7141 51.2857 20.0931 50.7476 20.4179C52.5234 23.0165 53.3305 26.1023 53.3305 29.3506V29.513H57.0434C56.882 25.6151 55.2677 21.8796 52.3619 19.281ZM30.0847 39.9073C29.6004 39.0953 28.9547 38.4456 28.6318 37.796C28.3089 38.4456 27.9861 39.0411 27.6632 39.5825L27.5018 39.7449H27.6632C28.0937 40.0697 28.578 40.4487 29.1161 40.8818C29.5466 40.557 29.8694 40.2321 30.0847 39.9073Z" fill="#767676"/>
<path d="M72.8634 38.9326H82.7106L80.9349 40.0695H70.9263V21.0673L72.702 19.9304H82.5492L80.7735 21.0673H72.8634V28.7006H81.5806L79.8049 29.8375H72.8634V38.9326Z" fill="#767676"/>
<path d="M106.118 19.9304H107.409V40.0694H106.118L92.3965 23.1786V40.0694H91.2665V21.5545L90.4594 20.7424L92.0736 19.4431L106.118 36.8212V19.9304Z" fill="#767676"/>
<path d="M131.462 19.9304H132.754L125.167 39.2573L123.391 40.5566L115.319 20.7424L116.934 19.4431L124.521 37.7956L131.462 19.9304Z" fill="#767676"/>
<path d="M154.224 37.9582C156.484 36.0093 157.614 33.519 157.614 30.4873C157.614 27.7804 156.645 25.5067 154.708 23.666C152.879 21.7171 150.618 20.7426 147.928 20.7426C146.206 20.7426 144.592 21.1757 143.085 22.0419C144.915 20.4178 147.067 19.6057 149.542 19.6057C152.233 19.6057 154.493 20.5802 156.322 22.5291C158.259 24.3698 159.228 26.6436 159.228 29.3504C159.228 33.0859 157.291 36.3341 154.224 37.9582ZM142.601 36.3341C144.538 38.2831 146.852 39.2575 149.542 39.2575C151.264 39.2575 152.825 38.8244 154.224 37.9582C152.394 39.5823 150.296 40.3944 147.928 40.3944C145.238 40.3944 142.924 39.4199 140.987 37.471C139.049 35.5221 138.081 33.1942 138.081 30.4873C138.081 28.7549 138.565 27.1308 139.534 25.6149C140.395 24.0991 141.578 22.9081 143.085 22.0419C140.987 23.8284 139.695 26.5894 139.695 29.3504C139.695 32.0573 140.664 34.3852 142.601 36.3341Z" fill="#767676"/>
<path d="M180.537 19.9304L173.434 31.1368V40.0694H171.335V31.2992L164.394 20.7424L166.17 19.4431L172.95 29.8375L179.245 19.9304H180.537Z" fill="#767676"/>
<path d="M196.357 22.3667C195.281 21.5005 194.043 21.0133 192.644 20.905C191.245 20.6885 190.061 20.8509 189.093 21.3922C190.169 20.2012 191.568 19.6057 193.29 19.6057C195.119 19.6057 196.68 20.1471 197.971 21.2298L196.357 22.3667ZM188.77 21.5547L189.093 21.3922C188.985 21.5005 188.877 21.6088 188.77 21.7171C188.608 21.8795 187.963 22.8539 187.963 23.8284C187.963 25.7774 189.738 27.2391 191.998 28.0511C195.227 29.3504 199.263 30.6497 199.263 34.0604C199.263 35.6845 198.186 37.2003 196.034 38.6079C196.249 38.4996 196.411 38.3372 196.518 38.1206C196.734 38.0124 197.003 37.6875 197.326 37.1462C197.541 36.4965 197.648 35.901 197.648 35.3596C197.648 32.5986 194.904 31.4618 191.998 30.3249C191.03 29.8918 190.169 29.4587 189.415 29.0256C187.64 28.2135 186.51 26.7518 186.51 24.9653C186.51 23.0164 188.124 21.8795 188.77 21.5547ZM187.64 36.4965C188.608 37.7958 189.9 38.662 191.514 39.0951C193.236 39.4199 194.743 39.2575 196.034 38.6079C194.635 40.0154 192.913 40.611 190.868 40.3944C188.824 40.1779 187.155 39.2575 185.864 37.6334L187.64 36.4965Z" fill="#767676"/>
</g>
</g>
<defs>
<filter id="filter0_d_120_2273" x="0" y="0" width="204.112" height="68" filterUnits="userSpaceOnUse" color-interpolation-filters="sRGB">
<feFlood flood-opacity="0" result="BackgroundImageFix"/>
<feColorMatrix in="SourceAlpha" type="matrix" values="0 0 0 0 0 0 0 0 0 0 0 0 0 0 0 0 0 0 127 0" result="hardAlpha"/>
<feOffset dy="4"/>
<feGaussianBlur stdDeviation="2"/>
<feComposite in2="hardAlpha" operator="out"/>
<feColorMatrix type="matrix" values="0 0 0 0 0 0 0 0 0 0 0 0 0 0 0 0 0 0 0.25 0"/>
<feBlend mode="normal" in2="BackgroundImageFix" result="effect1_dropShadow_120_2273"/>
<feBlend mode="normal" in="SourceGraphic" in2="effect1_dropShadow_120_2273" result="shape"/>
</filter>
<clipPath id="clip0_120_2273">
<rect width="196.112" height="37.3547" fill="white" transform="translate(4 11.3228)"/>
</clipPath>
</defs>
</svg>
