<svg width="84" height="61" viewBox="0 0 84 61" fill="none" xmlns="http://www.w3.org/2000/svg">
<g filter="url(#filter0_d_120_2202)">
<g clip-path="url(#clip0_120_2202)">
<path d="M51.9865 23.9661C50.8195 23.9745 49.6672 24.2228 48.6041 24.6948L48.5223 24.7312C48.2953 24.5499 48.0455 24.3981 47.7789 24.2794C47.3801 24.1099 46.9498 24.023 46.5151 24.0244C46.0858 24.0213 45.6605 24.1057 45.2662 24.2721C44.8856 24.4289 44.5397 24.6566 44.2477 24.9426C43.9721 25.2166 43.7459 25.5345 43.5787 25.8826C43.3981 26.2743 43.3044 26.699 43.3036 27.1288V36.4858C43.3036 36.5878 43.3036 36.6971 43.3036 36.8064C43.3036 37.1927 43.3036 37.4769 43.3036 37.6445V42.0971C43.3026 42.5239 43.3938 42.9461 43.5712 43.3359C43.7493 43.7115 44.002 44.0484 44.3146 44.327C44.6051 44.588 44.9397 44.7976 45.3033 44.9464C45.6995 45.1063 46.1239 45.1881 46.5523 45.1869C46.9822 45.1883 47.4076 45.1014 47.8012 44.9319C48.1495 44.7763 48.4687 44.5645 48.7453 44.3051C49.0674 44.0177 49.3212 43.6645 49.4887 43.2703C49.64 42.8969 49.7182 42.4989 49.7192 42.0971V32.5142C49.7182 32.2107 49.7789 31.9101 49.8976 31.6299C50.0163 31.3497 50.1906 31.0954 50.4105 30.8818C50.6263 30.6783 50.8783 30.5153 51.1539 30.4008C51.4318 30.2875 51.7302 30.2305 52.0311 30.2332C52.4571 30.2344 52.8791 30.1526 53.2726 29.9927C53.6434 29.8425 53.9835 29.6277 54.2762 29.3587C54.591 29.0821 54.8441 28.7447 55.0196 28.3676C55.2495 27.8893 55.3494 27.3609 55.3096 26.8337C55.2698 26.3064 55.0917 25.7981 54.7925 25.3582C54.4933 24.9183 54.0832 24.5616 53.602 24.3228C53.1208 24.084 52.5848 23.9712 52.046 23.9952L51.9865 23.9661Z" fill="#767676"/>
<path d="M62.4536 24.9207C62.1714 24.6348 61.8357 24.4047 61.4649 24.243C61.0689 24.0626 60.6378 23.9681 60.2011 23.9661C59.7864 23.9655 59.3756 24.0457 58.9927 24.2021C58.6099 24.3584 58.2625 24.5879 57.9709 24.877C57.6905 25.1498 57.4637 25.471 57.3019 25.8243C57.1138 26.2164 57.0173 26.6446 57.0194 27.0778V42.0752C57.0163 42.4913 57.1024 42.9035 57.2721 43.2849C57.4326 43.6655 57.6704 44.0101 57.9709 44.2979C58.2606 44.569 58.5982 44.7863 58.9671 44.9391C59.5496 45.1809 60.1925 45.2469 60.8135 45.1288C61.4346 45.0107 62.0056 44.7138 62.4536 44.276C63.0419 43.6936 63.3752 42.9093 63.3829 42.0898V27.0996C63.3829 26.69 63.3021 26.2841 63.145 25.9045C62.9779 25.5378 62.7436 25.2044 62.4536 24.9207Z" fill="#767676"/>
<path d="M62.4463 16.985C62.1621 16.7013 61.8269 16.4716 61.4575 16.3073C61.0587 16.1377 60.6284 16.0509 60.1937 16.0522C59.7644 16.0491 59.3392 16.1335 58.9448 16.3C58.5638 16.4559 58.2178 16.6837 57.9264 16.9704C57.6491 17.2431 57.4227 17.5613 57.2573 17.9105C57.0761 18.3019 56.9823 18.7268 56.9823 19.1566C56.9792 19.5728 57.0653 19.9849 57.235 20.3663C57.3957 20.7447 57.6335 21.0869 57.9338 21.372C58.2235 21.6431 58.5611 21.8604 58.93 22.0133C59.3196 22.1782 59.7397 22.2625 60.164 22.2611C60.5955 22.262 61.0228 22.1778 61.4204 22.0133C62.1694 21.6926 62.7651 21.1034 63.0856 20.3663C63.251 19.9836 63.337 19.5723 63.3383 19.1566C63.3386 18.7493 63.2578 18.3458 63.1005 17.9688C62.9446 17.6049 62.7229 17.2717 62.4463 16.985Z" fill="#767676"/>
<path d="M79.8269 39.6339C79.6646 39.1668 79.38 38.7497 79.0018 38.4242C78.4441 37.9213 77.7151 37.6406 76.9574 37.6371C76.4844 37.6364 76.018 37.7464 75.597 37.9578C75.2669 38.1192 74.9616 38.3253 74.69 38.5699C74.5523 38.693 74.3904 38.7873 74.2142 38.8468C73.9732 38.9179 73.7225 38.9523 73.4708 38.9489C73.201 38.9512 72.9333 38.9017 72.6828 38.8031C72.4449 38.7054 72.228 38.5645 72.0435 38.3877C71.8776 38.2209 71.7441 38.0258 71.6495 37.812C71.5494 37.5817 71.4988 37.3336 71.5008 37.0833V34.1683V30.2259H74.7421C75.1714 30.2296 75.5969 30.1452 75.991 29.9781C76.3619 29.8289 76.7 29.6112 76.9871 29.3368C77.2754 29.0522 77.5006 28.7123 77.6488 28.3384C77.821 27.955 77.9096 27.5404 77.9089 27.1215C77.9084 26.701 77.8224 26.2848 77.6562 25.8972C77.4093 25.3254 76.9951 24.8381 76.4658 24.497C75.9365 24.1558 75.316 23.9761 74.6826 23.9806H71.4637V19.1563C71.4666 18.7488 71.3857 18.3448 71.2258 17.9685C71.0781 17.6005 70.8555 17.2657 70.5716 16.9847C70.2914 16.6965 69.9552 16.4661 69.5829 16.307C69.1859 16.1309 68.7547 16.0414 68.3191 16.0446C67.914 16.0457 67.5129 16.1223 67.1371 16.2705H67.085C66.7045 16.4273 66.3586 16.655 66.0666 16.941C65.7903 17.2145 65.5639 17.5324 65.3975 17.8811C65.2111 18.2736 65.1147 18.7015 65.115 19.1345V37.025C65.1083 38.1278 65.3362 39.2198 65.7841 40.2314C66.2077 41.1996 66.8186 42.0781 67.5831 42.8185C68.3432 43.5529 69.2388 44.139 70.2222 44.5456C71.2545 44.9736 72.3648 45.1918 73.4857 45.1869C74.5003 45.1949 75.5078 45.022 76.4593 44.6767C77.3909 44.3311 78.2408 43.8029 78.9571 43.1245C79.2741 42.8298 79.5269 42.4754 79.7005 42.0824C79.878 41.706 79.9838 41.301 80.0128 40.8873C80.0328 40.4617 79.9697 40.0363 79.8269 39.6339Z" fill="#767676"/>
<path d="M25.4471 29.3078C25.5387 29.271 25.6332 29.2418 25.7296 29.2203L25.4471 29.3078Z" fill="#767676"/>
<path d="M39.7502 46.6372C38.0149 49.5718 35.1662 51.7146 31.8255 52.5983C31.5951 52.6639 31.3572 52.7149 31.0821 52.7659C30.3864 52.8572 29.6793 52.7242 29.0675 52.3869C28.3061 51.9351 27.7588 51.2055 27.5455 50.3584C27.3323 49.5114 27.4706 48.616 27.9301 47.8688C28.1536 47.4816 28.4534 47.1417 28.812 46.869C29.1706 46.5963 29.5809 46.3961 30.0191 46.2801H30.0934C31.711 45.8081 33.078 44.7382 33.9059 43.2965C34.7338 41.8548 34.9576 40.1541 34.5301 38.5537C34.1027 36.9532 33.0574 35.5782 31.615 34.7192C30.1726 33.8602 28.4461 33.5843 26.8001 33.9499C26.5863 33.9995 26.3754 34.0603 26.1682 34.1321C25.3787 34.2889 24.5578 34.1539 23.8637 33.7531C23.3288 33.4391 22.8951 32.9835 22.6124 32.4388C22.3296 31.8941 22.2093 31.2822 22.2652 30.6735C22.3211 30.0648 22.5509 29.4839 22.9283 28.9974C23.3058 28.5109 23.8155 28.1386 24.3989 27.9232L24.726 27.8285C27.2418 27.123 29.9151 27.1692 32.4039 27.9613C34.8928 28.7534 37.0839 30.2554 38.6972 32.275C40.3104 34.2946 41.2723 36.74 41.4599 39.2985C41.6475 41.857 41.0522 44.4122 39.7502 46.6372Z" fill="#767676"/>
<path d="M41.0957 18.5225C41.0957 18.4204 41.0213 18.3184 40.9767 18.2237C40.9416 18.1391 40.9019 18.0564 40.8578 17.9759C40.6794 17.6115 40.4935 17.2472 40.3002 16.9192C38.9215 14.518 37.029 12.4376 34.7525 10.8212C32.476 9.20477 29.8696 8.09051 27.1123 7.55496C23.3722 6.84058 19.5004 7.22193 15.9801 8.65142C12.4598 10.0809 9.44701 12.4952 7.31787 15.5929C5.18872 18.6906 4.03753 22.3344 4.00803 26.0695C3.97852 29.8046 5.072 33.4655 7.15195 36.5952C8.56431 38.7254 10.4029 40.5525 12.5565 41.966C14.1049 43.0004 15.7975 43.8103 17.5819 44.3708C20.2222 45.1889 23.0118 45.4375 25.7593 45.0995C26.9067 44.9557 28.0386 44.7118 29.1418 44.3708H29.2235C29.625 44.2469 30.0115 44.1085 30.3833 43.97C31.0231 43.6393 31.5696 43.1587 31.9741 42.5708C32.6195 41.6279 32.8575 40.4728 32.636 39.3583C32.4145 38.2437 31.7515 37.2607 30.7921 36.6243C30.2518 36.2706 29.6381 36.0388 28.9954 35.9455C28.3526 35.8523 27.6968 35.8999 27.0751 36.0851C26.986 36.1233 26.894 36.1549 26.8001 36.1798H26.748L26.3838 36.2891C25.5063 36.5424 24.5994 36.6845 23.6852 36.7118C21.6187 36.7788 19.5773 36.2519 17.8123 35.196C17.6711 35.1085 17.5298 35.0211 17.396 34.9264C15.0409 33.3715 13.4124 30.9632 12.8687 28.2312C12.3249 25.4993 12.9106 22.6675 14.4968 20.3589C16.0829 18.0502 18.5397 16.4538 21.3266 15.9208C24.1135 15.3878 27.0023 15.9619 29.3574 17.5168C30.9092 18.5362 32.1623 19.9355 32.9926 21.5759C33.0372 21.6779 33.0818 21.7799 33.1338 21.8747L33.2453 22.0714C33.7164 22.8487 34.4273 23.4591 35.2755 23.8144C36.1236 24.1697 37.065 24.2514 37.9636 24.0478C38.8623 23.8442 39.6716 23.3658 40.2747 22.6818C40.8778 21.9977 41.2434 21.1434 41.3187 20.2423C41.3622 19.6602 41.2864 19.0754 41.0957 18.5225Z" fill="#767676"/>
</g>
</g>
<defs>
<filter id="filter0_d_120_2202" x="0" y="0" width="83.983" height="68" filterUnits="userSpaceOnUse" color-interpolation-filters="sRGB">
<feFlood flood-opacity="0" result="BackgroundImageFix"/>
<feColorMatrix in="SourceAlpha" type="matrix" values="0 0 0 0 0 0 0 0 0 0 0 0 0 0 0 0 0 0 127 0" result="hardAlpha"/>
<feOffset dy="4"/>
<feGaussianBlur stdDeviation="2"/>
<feComposite in2="hardAlpha" operator="out"/>
<feColorMatrix type="matrix" values="0 0 0 0 0 0 0 0 0 0 0 0 0 0 0 0 0 0 0.25 0"/>
<feBlend mode="normal" in2="BackgroundImageFix" result="effect1_dropShadow_120_2202"/>
<feBlend mode="normal" in="SourceGraphic" in2="effect1_dropShadow_120_2202" result="shape"/>
</filter>
<clipPath id="clip0_120_2202">
<rect width="75.9831" height="45.5898" fill="white" transform="translate(4 7.20508)"/>
</clipPath>
</defs>
</svg>
