<svg width="33" height="40" viewBox="0 0 33 40" fill="none" xmlns="http://www.w3.org/2000/svg">
<path d="M29.6254 15.5377C29.6254 20.3751 27.2442 24.0969 23.6217 26.5474C22.778 27.1174 22.3561 27.4024 22.148 27.7287C21.9418 28.0512 21.8687 28.4787 21.728 29.3299L21.6155 29.9917C21.368 31.488 21.2424 32.2361 20.7174 32.6804C20.1924 33.1248 19.435 33.1248 17.9181 33.1248H13.0207C11.5039 33.1248 10.7464 33.1248 10.2214 32.6804C9.69642 32.2361 9.57268 31.488 9.32143 29.9917L9.21268 29.3299C9.07019 28.4805 9.00081 28.0549 8.79457 27.7324C8.58832 27.4099 8.16458 27.1212 7.31898 26.5437C3.73593 24.0931 1.50098 20.3732 1.50098 15.5377C1.50098 7.64973 7.79709 1.2505 15.5632 1.2505C16.5079 1.2495 17.4503 1.34499 18.3756 1.53549" stroke="#BE79FF" stroke-width="1.5" stroke-linecap="round" stroke-linejoin="round"/>
<path d="M19.3133 33.1248V34.9998C19.3133 36.7678 19.3133 37.6509 18.7639 38.2003C18.2146 38.7497 17.3315 38.7497 15.5634 38.7497C13.7953 38.7497 12.9122 38.7497 12.3628 38.2003C11.8135 37.6509 11.8135 36.7678 11.8135 34.9998V33.1248M24.9382 1.25049L25.4219 2.55733C26.0557 4.27105 26.3725 5.1279 26.9969 5.75227C27.6231 6.3785 28.48 6.69537 30.1937 7.32911L31.5005 7.81285L30.1937 8.29658C28.48 8.93032 27.6231 9.24719 26.9988 9.87155C26.3725 10.4978 26.0557 11.3546 25.4219 13.0684L24.9382 14.3752L24.4545 13.0684C23.8207 11.3546 23.5038 10.4978 22.8795 9.87343C22.2532 9.24719 21.3964 8.93032 19.6827 8.29658L18.3758 7.81285L19.6827 7.32911C21.3964 6.69537 22.2532 6.3785 22.8776 5.75414C23.5038 5.1279 23.8207 4.27105 24.4545 2.55733L24.9382 1.25049Z" stroke="#BE79FF" stroke-width="1.5" stroke-linecap="round" stroke-linejoin="round"/>
</svg>
