<svg width="207" height="60" viewBox="0 0 207 60" fill="none" xmlns="http://www.w3.org/2000/svg">
<g filter="url(#filter0_d_120_2234)">
<path d="M6.42058 50.1167C5.77383 50.1167 5.16805 49.8651 4.7086 49.4085C4.24036 48.9403 3.98868 48.317 4.00039 47.6556C4.0121 46.9942 4.28426 46.3796 4.77005 45.9289L25.8173 26.2982C26.0806 26.0523 26.423 25.9177 26.783 25.9177C27.1605 25.9177 27.5175 26.064 27.7868 26.3333C28.3311 26.8776 28.3457 27.7409 27.8219 28.3028L8.1911 49.35C7.72872 49.8446 7.09953 50.1167 6.42058 50.1167Z" fill="#767676"/>
<path d="M27.3362 43.6841C26.7655 43.6841 26.2417 43.4529 25.8612 43.0314C25.4778 42.61 25.2964 42.0657 25.352 41.498L25.9197 35.607C25.99 34.8724 26.5987 34.3193 27.3362 34.3193C28.0736 34.3193 28.6823 34.8724 28.7526 35.607L29.3203 41.498C29.3759 42.0657 29.1945 42.6071 28.8111 43.0314C28.4277 43.4499 27.9039 43.6841 27.3362 43.6841Z" fill="#767676"/>
<path d="M27.3362 19.248C26.5987 19.248 25.99 18.6949 25.9197 17.9604L25.352 12.0694C25.2964 11.5016 25.4778 10.9602 25.8612 10.5359C26.2446 10.1145 26.7684 9.8833 27.3362 9.8833C27.9039 9.8833 28.4307 10.1145 28.8111 10.5359C29.1945 10.9573 29.3759 11.5016 29.3203 12.0694L28.7526 17.9604C28.6823 18.6949 28.0736 19.248 27.3362 19.248Z" fill="#767676"/>
<path d="M37.8771 39.318C37.2772 39.318 36.7182 39.0547 36.3378 38.5923L32.5714 34.0241C32.1032 33.4563 32.1412 32.634 32.6621 32.1131C32.9314 31.8438 33.2884 31.6975 33.6688 31.6975C34.0024 31.6975 34.3156 31.8087 34.5731 32.0223L39.1413 35.7858C39.5803 36.1487 39.8378 36.6608 39.8642 37.2285C39.8905 37.7963 39.6857 38.3318 39.2818 38.7357C38.9072 39.1103 38.4068 39.318 37.8771 39.318Z" fill="#767676"/>
<path d="M21.0002 21.8703C20.6666 21.8703 20.3535 21.7591 20.0959 21.5455L15.5277 17.782C15.0887 17.4191 14.8312 16.907 14.8049 16.3393C14.7785 15.7715 14.9834 15.236 15.3872 14.8321C15.7648 14.4546 16.2652 14.2468 16.7949 14.2468C17.3948 14.2468 17.9538 14.5102 18.3342 14.9726L22.0976 19.5408C22.5659 20.1086 22.5278 20.9309 22.0069 21.4518C21.7377 21.724 21.3807 21.8703 21.0002 21.8703Z" fill="#767676"/>
<path d="M42.2464 28.7769C42.182 28.7769 42.1177 28.7739 42.0503 28.7681L36.1594 28.2004C35.4248 28.1301 34.8717 27.5214 34.8717 26.7839C34.8717 26.0465 35.4248 25.4378 36.1594 25.3675L42.0503 24.7998C42.1147 24.7939 42.182 24.791 42.2464 24.791C43.3438 24.791 44.2364 25.6865 44.2364 26.7869C44.2364 27.8872 43.3438 28.7769 42.2464 28.7769Z" fill="#767676"/>
<path d="M12.4257 28.7769C11.3282 28.7769 10.4357 27.8814 10.4357 26.781C10.4357 25.6807 11.3282 24.7852 12.4257 24.7852C12.4901 24.7852 12.5544 24.7881 12.6217 24.7939L18.5127 25.3617C19.2473 25.4319 19.8004 26.0406 19.8004 26.7781C19.8004 27.5156 19.2473 28.1243 18.5127 28.1945L12.6217 28.7622C12.5544 28.7739 12.4901 28.7769 12.4257 28.7769Z" fill="#767676"/>
<path d="M33.6718 21.8703C33.2914 21.8703 32.9344 21.721 32.6651 21.4547C32.1442 20.9338 32.1032 20.1115 32.5744 19.5437L36.3378 14.9755C36.7183 14.5131 37.2802 14.2498 37.8772 14.2498C38.4098 14.2498 38.9102 14.4575 39.2848 14.8351C39.6887 15.2389 39.8935 15.7715 39.8672 16.3422C39.8408 16.9099 39.5833 17.4221 39.1443 17.7849L34.5761 21.5484C34.3215 21.7562 33.9996 21.8703 33.6718 21.8703Z" fill="#767676"/>
<path d="M86.3191 30.1932H88.5637C88.7481 30.1932 88.8973 30.3425 88.8973 30.5268V43.3477C88.8973 43.5321 88.7481 43.6813 88.5637 43.6813H86.3191C86.1347 43.6813 85.9855 43.5321 85.9855 43.3477V41.7411C84.8793 43.2775 83.3136 44.0354 81.2651 44.0354C79.4038 44.0354 77.8382 43.3623 76.5154 41.984C75.1926 40.6085 74.5459 38.9083 74.5459 36.9387C74.5459 34.9429 75.1926 33.2689 76.5154 31.8935C77.8382 30.5181 79.4038 29.842 81.2651 29.842C83.3165 29.842 84.8793 30.5971 85.9855 32.1071V30.5268C85.9826 30.3425 86.1347 30.1932 86.3191 30.1932ZM81.7216 41.2553C82.9361 41.2553 83.9604 40.8514 84.771 40.0408C85.5816 39.2038 85.9855 38.1796 85.9855 36.9387C85.9855 35.6979 85.5816 34.6736 84.771 33.863C83.9604 33.026 82.9361 32.6222 81.7216 32.6222C80.5071 32.6222 79.4829 33.026 78.6722 33.863C77.8616 34.6736 77.4577 35.6979 77.4577 36.9387C77.4577 38.1796 77.8616 39.2068 78.6722 40.0408C79.4829 40.8485 80.5071 41.2553 81.7216 41.2553Z" fill="#767676"/>
<path d="M92.4325 27.6298C91.7038 26.8748 91.7038 25.7422 92.4325 25.0135C93.1612 24.2585 94.3493 24.2585 95.078 25.0135C95.8067 25.7422 95.8067 26.8748 95.0517 27.6298C94.323 28.3585 93.1875 28.3585 92.4325 27.6298ZM92.2979 43.3479V30.527C92.2979 30.3426 92.4471 30.1934 92.6315 30.1934H94.8761C95.0605 30.1934 95.2097 30.3426 95.2097 30.527V43.3479C95.2097 43.5323 95.0605 43.6815 94.8761 43.6815H92.6315C92.4471 43.6815 92.2979 43.5323 92.2979 43.3479Z" fill="#767676"/>
<path d="M98.5839 43.3478V25.1305C98.5839 24.9461 98.7331 24.7969 98.9175 24.7969H101.162C101.346 24.7969 101.496 24.9461 101.496 25.1305V43.3478C101.496 43.5322 101.346 43.6814 101.162 43.6814H98.9175C98.7331 43.6814 98.5839 43.5322 98.5839 43.3478Z" fill="#767676"/>
<path d="M71.6662 24.7969H68.8714C68.7543 24.7969 68.6461 24.8583 68.5846 24.9578L62.9629 34.2406L57.3674 24.9608C57.306 24.8613 57.1977 24.7998 57.0806 24.7998H54.2595C54.0752 24.7998 53.9259 24.9491 53.9259 25.1334V43.3507C53.9259 43.5351 54.0752 43.6843 54.2595 43.6843H56.6914C56.8758 43.6843 57.025 43.5351 57.025 43.3507V30.1933L61.8888 38.2528C61.962 38.3757 62.0966 38.4518 62.24 38.4518H63.6857C63.8291 38.4518 63.9608 38.3757 64.0369 38.2528L68.8977 30.2196V43.3478C68.8977 43.5322 69.047 43.6814 69.2314 43.6814H71.6633C71.8476 43.6814 71.9969 43.5322 71.9969 43.3478V25.1334C72.0027 24.9461 71.8506 24.7969 71.6662 24.7969Z" fill="#767676"/>
<path d="M137.453 30.193H139.698C139.882 30.193 140.031 30.3422 140.031 30.5266V43.3475C140.031 43.5318 139.882 43.6811 139.698 43.6811H137.453C137.269 43.6811 137.12 43.5318 137.12 43.3475V41.7408C136.013 43.2772 134.448 44.0352 132.399 44.0352C130.538 44.0352 128.972 43.3621 127.65 41.9837C126.327 40.6083 125.68 38.908 125.68 36.9385C125.68 34.9426 126.327 33.2687 127.65 31.8933C128.972 30.5178 130.538 29.8418 132.399 29.8418C134.451 29.8418 136.013 30.5968 137.12 32.1069V30.5266C137.117 30.3422 137.269 30.193 137.453 30.193ZM132.856 41.255C134.07 41.255 135.095 40.8512 135.905 40.0406C136.716 39.2036 137.12 38.1793 137.12 36.9385C137.12 35.6977 136.716 34.6734 135.905 33.8628C135.095 33.0258 134.07 32.6219 132.856 32.6219C131.641 32.6219 130.617 33.0258 129.806 33.8628C128.996 34.6734 128.592 35.6977 128.592 36.9385C128.592 38.1793 128.996 39.2065 129.806 40.0406C130.617 40.8483 131.641 41.255 132.856 41.255Z" fill="#767676"/>
<path d="M145.434 38.1793C145.864 40.2308 147.512 41.3633 149.75 41.3633C151.179 41.3633 152.282 40.8746 153.057 39.9206C153.16 39.7947 153.338 39.7538 153.479 39.8357L155.317 40.9097C155.486 41.0092 155.539 41.2346 155.422 41.3926C154.105 43.1602 152.206 44.0352 149.724 44.0352C147.538 44.0352 145.759 43.3621 144.41 42.0393C143.061 40.6902 142.387 38.99 142.387 36.9414C142.387 34.9192 143.061 33.2453 144.383 31.8962C145.706 30.5207 147.433 29.8447 149.51 29.8447C151.48 29.8447 153.098 30.5471 154.366 31.9225C155.633 33.298 156.282 34.9982 156.282 36.9678C156.282 37.2048 156.265 37.5121 156.218 37.8867C156.197 38.0535 156.054 38.1823 155.884 38.1823H145.434V38.1793ZM153.338 35.803C152.934 33.617 151.395 32.4844 149.481 32.4844C147.321 32.4844 145.811 33.7516 145.408 35.803H153.338Z" fill="#767676"/>
<path d="M163.458 35.6684C165.536 36.1279 168.234 36.9912 168.179 39.8767C168.179 41.1702 167.666 42.1974 166.668 42.9261C165.671 43.6548 164.43 44.0323 162.917 44.0323C160.374 44.0323 158.468 42.9553 157.547 41.1555C157.468 41.0004 157.529 40.8102 157.681 40.7224L159.595 39.6104C159.765 39.5109 159.981 39.5811 160.063 39.7567C160.57 40.8249 161.521 41.3604 162.92 41.3604C164.459 41.3604 165.214 40.8483 165.214 39.8503C165.214 38.987 164.081 38.4749 162.65 38.1237C160.628 37.6116 157.901 36.801 157.956 33.9681C157.956 32.7273 158.416 31.7294 159.358 30.9743C160.303 30.2193 161.489 29.8418 162.893 29.8418C164.997 29.8418 166.718 30.7695 167.704 32.3352C167.807 32.499 167.757 32.7185 167.587 32.8122L165.729 33.854C165.571 33.9418 165.372 33.8891 165.278 33.7311C164.793 32.9 163.985 32.4844 162.89 32.4844C161.784 32.4844 160.921 32.9702 160.921 33.9154C160.921 34.8051 162.053 35.2646 163.458 35.6684Z" fill="#767676"/>
<path d="M177.397 32.9997H174.386V39.4759C174.386 41.1089 175.398 41.1733 177.382 41.0855C177.572 41.0767 177.731 41.2289 177.731 41.4191V43.3857C177.731 43.5554 177.602 43.7018 177.432 43.7193C173.197 44.1671 171.471 42.9292 171.471 39.4759V32.9997H169.323C169.138 32.9997 168.989 32.8504 168.989 32.666V30.5297C168.989 30.3453 169.138 30.1961 169.323 30.1961H171.471V27.533C171.471 27.3837 171.567 27.255 171.711 27.2111L173.955 26.5468C174.169 26.4824 174.386 26.6434 174.386 26.8687V30.1961H177.397C177.581 30.1961 177.731 30.3453 177.731 30.5297V32.666C177.731 32.8475 177.581 32.9997 177.397 32.9997Z" fill="#767676"/>
<path d="M183.422 32.4581C184.107 30.8866 185.386 30.0525 187.218 29.9589C187.411 29.9501 187.578 30.0993 187.578 30.2925V32.7566C187.578 32.938 187.432 33.0931 187.25 33.0931C186.279 33.0843 185.418 33.3565 184.663 33.9155C183.826 34.5095 183.422 35.5075 183.422 36.8829V43.3475C183.422 43.5319 183.273 43.6811 183.089 43.6811H180.844C180.66 43.6811 180.511 43.5319 180.511 43.3475V30.5266C180.511 30.3422 180.66 30.193 180.844 30.193H183.089C183.273 30.193 183.422 30.3422 183.422 30.5266V32.4581Z" fill="#767676"/>
<path d="M190.147 41.9837C188.772 40.6083 188.07 38.9344 188.07 36.9385C188.07 34.9426 188.772 33.2687 190.147 31.8933C191.523 30.5178 193.223 29.8418 195.193 29.8418C197.189 29.8418 198.863 30.5149 200.238 31.8933C201.613 33.2687 202.316 34.9426 202.316 36.9385C202.316 38.9344 201.613 40.6083 200.238 41.9837C198.863 43.3592 197.189 44.0352 195.193 44.0352C193.223 44.0323 191.523 43.3592 190.147 41.9837ZM195.193 41.1994C196.381 41.1994 197.379 40.7956 198.187 39.985C198.997 39.1743 199.401 38.1501 199.401 36.9356C199.401 35.7211 198.997 34.6968 198.187 33.8862C197.376 33.0756 196.378 32.6717 195.193 32.6717C194.008 32.6717 193.007 33.0756 192.199 33.8862C191.388 34.6968 190.984 35.7211 190.984 36.9356C190.984 38.1501 191.388 39.1743 192.199 39.985C193.007 40.7956 194.005 41.1994 195.193 41.1994Z" fill="#767676"/>
<path d="M122.8 24.7964H120.006C119.889 24.7964 119.78 24.8578 119.719 24.9573L114.097 34.2401L108.502 24.9603C108.44 24.8608 108.332 24.7993 108.215 24.7993H105.394C105.209 24.7993 105.06 24.9486 105.06 25.1329V43.3502C105.06 43.5346 105.209 43.6838 105.394 43.6838H107.826C108.01 43.6838 108.159 43.5346 108.159 43.3502V30.1928L113.023 38.2523C113.096 38.3752 113.231 38.4513 113.374 38.4513H114.82C114.963 38.4513 115.095 38.3752 115.171 38.2523L120.032 30.2191V43.3473C120.032 43.5317 120.181 43.6809 120.366 43.6809H122.798C122.982 43.6809 123.131 43.5317 123.131 43.3473V25.1329C123.137 24.9456 122.988 24.7964 122.8 24.7964Z" fill="#767676"/>
</g>
<defs>
<filter id="filter0_d_120_2234" x="0" y="0" width="206.316" height="68" filterUnits="userSpaceOnUse" color-interpolation-filters="sRGB">
<feFlood flood-opacity="0" result="BackgroundImageFix"/>
<feColorMatrix in="SourceAlpha" type="matrix" values="0 0 0 0 0 0 0 0 0 0 0 0 0 0 0 0 0 0 127 0" result="hardAlpha"/>
<feOffset dy="4"/>
<feGaussianBlur stdDeviation="2"/>
<feComposite in2="hardAlpha" operator="out"/>
<feColorMatrix type="matrix" values="0 0 0 0 0 0 0 0 0 0 0 0 0 0 0 0 0 0 0.25 0"/>
<feBlend mode="normal" in2="BackgroundImageFix" result="effect1_dropShadow_120_2234"/>
<feBlend mode="normal" in="SourceGraphic" in2="effect1_dropShadow_120_2234" result="shape"/>
</filter>
</defs>
</svg>
