<svg width="261" height="60" viewBox="0 0 261 60" fill="none" xmlns="http://www.w3.org/2000/svg">
<g filter="url(#filter0_d_120_2282)">
<g clip-path="url(#clip0_120_2282)">
<path fill-rule="evenodd" clip-rule="evenodd" d="M188.403 43.3599H197.032V15.9626H188.403V43.3599Z" fill="#767676"/>
<path fill-rule="evenodd" clip-rule="evenodd" d="M228.757 15.9626H234.634L232.638 23.4289H228.366L228.757 15.9626Z" fill="#767676"/>
<path fill-rule="evenodd" clip-rule="evenodd" d="M244.761 20.0209C250.502 20.0209 255.894 21.4188 255.92 26.857H247.726C247.726 24.9834 246.593 24.1319 244.68 24.1319C243.545 24.1319 242.011 24.5868 242.011 26.3037C242.013 29.1527 246.681 28.5829 250.645 29.7186C254.205 30.7378 256.674 32.7881 256.674 36.099C256.674 41.171 252.55 43.977 244.761 44.0069C236.593 44.0381 233.52 41.1966 233.494 36.099H241.796C241.796 38.0231 243.036 39.1685 244.787 39.1685C246.883 39.1685 247.834 38.4003 247.834 36.9699C247.834 33.9917 242.111 34.0688 238.735 33.003C236.44 32.2771 234.354 30.6351 234.354 27.1487C234.354 24.2358 236.618 20.0208 244.76 20.0208" fill="#767676"/>
<path fill-rule="evenodd" clip-rule="evenodd" d="M68.0483 35.0568C66.6165 40.5034 61.935 44.0337 56.0964 44.0351C49.0471 44.0351 43.6848 38.8868 43.692 31.4367C43.6971 23.996 48.4639 18.8473 56.0964 18.8403C62.4251 18.8355 66.7826 22.3835 68.0907 27.8373L60.0162 27.838C59.397 26.1989 58.2072 24.9203 56.0963 24.919C52.5336 24.9183 51.5939 28.5626 51.5954 31.4368C51.5961 34.3129 52.5336 37.9551 56.0963 37.9551C58.1985 37.9551 59.386 36.6877 60.0075 35.0575L68.0483 35.0568Z" fill="#767676"/>
<path fill-rule="evenodd" clip-rule="evenodd" d="M8.5211 15.9653H18.8302L23.3177 32.1499L27.805 15.9653H38.1213L42.6288 44.0357H34.1233L31.8768 27.6313L27.2283 44.0357H19.4074L14.7598 27.6313L12.5119 44.0357H4.00073L8.52189 15.9653" fill="#767676"/>
<path fill-rule="evenodd" clip-rule="evenodd" d="M140.751 29.9386V43.3647H132.22V19.4289H140.751V21.2989C142.91 19.6751 144.861 18.8403 149.289 18.8403C154.096 18.8403 157.969 21.9412 157.971 25.1965V43.3645H149.381V30.1892C149.384 28.0009 147.354 26.2169 145.143 26.2169C142.3 26.2169 140.885 28.6454 140.751 29.9386Z" fill="#767676"/>
<path fill-rule="evenodd" clip-rule="evenodd" d="M216.855 21.8029V15.9626H225.483V43.3599H216.855V42.0305C215.722 43.018 214.236 44.0267 210.517 44.0267C206.333 44.0267 199.686 41.7831 199.681 32.1444C199.676 22.5193 206.326 20.0216 211.057 20.0216C214.492 20.0216 216.115 21.1662 216.856 21.8036L216.855 21.8029ZM207.902 32.1441C207.902 35.8904 209.708 38.284 212.675 38.284C214.453 38.284 215.941 37.5359 216.859 35.975V28.7881C216.399 27.2015 214.803 26.0318 212.675 26.0313C209.703 26.0299 207.902 28.3984 207.902 32.1441Z" fill="#767676"/>
<path fill-rule="evenodd" clip-rule="evenodd" d="M103.578 31.4403C103.586 23.9996 108.585 18.8495 116.592 18.8425C124.602 18.8356 129.601 23.9998 129.606 31.4403C129.613 38.8892 124.6 44.0366 116.592 44.0366C108.593 44.0373 103.572 38.889 103.578 31.4403ZM121.536 31.4403C121.538 28.5649 120.506 24.9219 116.592 24.9219C112.679 24.9205 111.648 28.5649 111.648 31.4403C111.65 34.3152 112.679 37.9581 116.592 37.9581C120.506 37.9581 121.536 34.3151 121.536 31.4403Z" fill="#767676"/>
<path fill-rule="evenodd" clip-rule="evenodd" d="M71.0551 15.9653H85.8787C95.1527 15.9653 101.474 21.525 101.474 30.0002C101.474 38.4745 95.1545 44.0357 85.8787 44.0357H71.0551V15.9653ZM80.8613 37.3999H85.3429C88.2469 37.3999 91.7816 35.6909 91.7816 30.0002C91.7816 24.3164 88.2468 22.6011 85.3429 22.6011H80.8613V37.3999Z" fill="#767676"/>
<path fill-rule="evenodd" clip-rule="evenodd" d="M173.355 18.8435C179.477 18.8387 184.524 21.0117 184.918 25.7829V43.361H176.283V40.9911C174.187 42.7251 172.097 44.0261 168.323 44.0261C163.927 44.0261 160.385 40.6721 160.385 36.7407C160.385 32.8085 162.894 28.4404 172.937 28.4425C175.527 28.4431 176.281 27.4598 176.283 26.2889C176.286 24.8507 174.569 24.0486 173.13 24.0486C171.692 24.0486 170.061 24.6267 170.061 26.13H161.972C161.972 22.6028 164.429 18.8518 173.355 18.8435ZM172.877 32.3314C170.885 32.3314 169.042 33.3575 169.042 35.3232C169.042 36.5963 169.822 37.6953 171.858 37.6947C173.805 37.6947 175.884 36.5796 176.283 34.268V32.0783C175.624 32.4257 174.135 32.3314 172.877 32.3314Z" fill="#767676"/>
</g>
</g>
<defs>
<filter id="filter0_d_120_2282" x="0" y="0" width="260.671" height="68" filterUnits="userSpaceOnUse" color-interpolation-filters="sRGB">
<feFlood flood-opacity="0" result="BackgroundImageFix"/>
<feColorMatrix in="SourceAlpha" type="matrix" values="0 0 0 0 0 0 0 0 0 0 0 0 0 0 0 0 0 0 127 0" result="hardAlpha"/>
<feOffset dy="4"/>
<feGaussianBlur stdDeviation="2"/>
<feComposite in2="hardAlpha" operator="out"/>
<feColorMatrix type="matrix" values="0 0 0 0 0 0 0 0 0 0 0 0 0 0 0 0 0 0 0.25 0"/>
<feBlend mode="normal" in2="BackgroundImageFix" result="effect1_dropShadow_120_2282"/>
<feBlend mode="normal" in="SourceGraphic" in2="effect1_dropShadow_120_2282" result="shape"/>
</filter>
<clipPath id="clip0_120_2282">
<rect width="252.671" height="28.0745" fill="white" transform="translate(4 15.9626)"/>
</clipPath>
</defs>
</svg>
