<svg width="28" height="28" viewBox="0 0 28 28" fill="none" xmlns="http://www.w3.org/2000/svg">
<path d="M17.8295 20.8808C18.9684 20.6973 20.0384 20.3076 21 19.7514L25.2 20.5334L24.418 16.3334C25.2122 14.9606 25.6667 13.3667 25.6667 11.6667C25.6667 6.51205 21.488 2.33337 16.3333 2.33337C11.6347 2.33337 7.74704 5.80535 7.0959 10.3237M15.1667 19.25C15.1667 22.7939 12.2938 25.6667 8.74999 25.6667C7.58124 25.6667 6.48547 25.3542 5.54166 24.8083L2.65416 25.3459L3.19176 22.4584C2.6458 21.5146 2.33333 20.4188 2.33333 19.25C2.33333 15.7062 5.20617 12.8334 8.74999 12.8334C12.2938 12.8334 15.1667 15.7062 15.1667 19.25Z" stroke="#BE79FF" stroke-linecap="round" stroke-linejoin="round"/>
</svg>
