<svg width="157" height="60" viewBox="0 0 157 60" fill="none" xmlns="http://www.w3.org/2000/svg">
<g filter="url(#filter0_d_120_2265)">
<path fill-rule="evenodd" clip-rule="evenodd" d="M20.9171 12.2749L7.68229 23.5453C6.35305 24.6772 5.28299 26.0465 4.51416 27.5623V22.0179C4.51416 14.8473 10.3885 9.03442 17.6349 9.03442H17.6424L20.9171 12.2749ZM15.9799 40.0084L26.2102 50.9451H38.1163L24.2479 35.8334C29.4351 34.7213 33.4791 30.5737 34.3859 25.3641L30.7388 21.7551L17.3931 33.2152C16.4954 33.986 15.9799 35.1043 15.9799 36.2804V40.0084Z" fill="#767676"/>
<path fill-rule="evenodd" clip-rule="evenodd" d="M34.6392 9.03442V22.3354L30.8222 18.5583L25.4458 23.1779C25.4752 22.9396 25.4903 22.6971 25.4903 22.4509C25.4903 19.1734 22.8052 16.5163 19.493 16.5163C19.4759 16.5163 19.4588 16.5164 19.4417 16.5165L24.4287 12.2317L20.8154 9.03443L34.6392 9.03442ZM13.5614 21.569L9.03273 25.4602C6.16271 27.9261 4.5144 31.5026 4.5144 35.2637V50.9661H13.0878V35.1768C13.0878 34.0011 14.049 32.9702 14.9461 32.1994L19.3858 28.3847C16.123 28.3282 13.4956 25.6932 13.4956 22.4509C13.4956 22.1513 13.518 21.8568 13.5614 21.569Z" fill="#767676"/>
<path d="M58.8531 26.8856L55.6496 21.2508H53.8053V26.8856H49.9224V9.73608H56.7175C58.3353 9.73608 59.7106 10.3077 60.8431 11.451C61.9755 12.5943 62.5418 13.9826 62.5418 15.6159C62.5418 16.6612 62.2506 17.633 61.6681 18.5314C61.1019 19.4134 60.3496 20.0993 59.4112 20.5893L63.0272 26.8856H58.8531ZM53.8053 13.411V17.8209H56.7175C57.2513 17.8209 57.7043 17.6085 58.0765 17.1839C58.4648 16.7592 58.6589 16.2366 58.6589 15.6159C58.6589 14.9953 58.4648 14.4726 58.0765 14.048C57.7043 13.6233 57.2513 13.411 56.7175 13.411H53.8053ZM67.3675 22.2307C67.7881 23.3741 68.7588 23.9457 70.2796 23.9457C71.2665 23.9457 72.0431 23.6354 72.6093 23.0148L75.5216 24.7052C74.3243 26.3875 72.5608 27.2286 70.231 27.2286C68.1925 27.2286 66.5584 26.6161 65.3289 25.3912C64.1155 24.1662 63.5087 22.6227 63.5087 20.7608C63.5087 18.9152 64.1073 17.3799 65.3047 16.1549C66.518 14.9136 68.0712 14.293 69.9641 14.293C71.7276 14.293 73.1918 14.9136 74.3566 16.1549C75.5377 17.3799 76.1282 18.9152 76.1282 20.7608C76.1282 21.2834 76.0797 21.7734 75.9827 22.2307H67.3675ZM67.2946 19.4868H72.5123C72.1563 18.1965 71.2989 17.5514 69.9398 17.5514C68.5323 17.5514 67.6506 18.1965 67.2946 19.4868ZM85.4605 14.636H89.489L84.9994 26.8856H80.8738L76.3842 14.636H80.4127L82.9366 22.4022L85.4605 14.636ZM93.6027 22.2307C94.0233 23.3741 94.9941 23.9457 96.5149 23.9457C97.5018 23.9457 98.2784 23.6354 98.8447 23.0148L101.757 24.7052C100.56 26.3875 98.7962 27.2286 96.4664 27.2286C94.4279 27.2286 92.7938 26.6161 91.5642 25.3912C90.3508 24.1662 89.7441 22.6227 89.7441 20.7608C89.7441 18.9152 90.3427 17.3799 91.5399 16.1549C92.7533 14.9136 94.3065 14.293 96.1994 14.293C97.9629 14.293 99.4271 14.9136 100.592 16.1549C101.773 17.3799 102.364 18.9152 102.364 20.7608C102.364 21.2834 102.315 21.7734 102.218 22.2307H93.6027ZM93.5299 19.4868H98.7476C98.3916 18.1965 97.5341 17.5514 96.1752 17.5514C94.7675 17.5514 93.8858 18.1965 93.5299 19.4868ZM111.539 14.293C112.833 14.293 113.909 14.7421 114.766 15.6404C115.64 16.5387 116.077 17.78 116.077 19.3644V26.8856H112.437V19.9033C112.437 19.1847 112.234 18.6376 111.83 18.2619C111.442 17.8699 110.94 17.6739 110.326 17.6739C109.63 17.6739 109.079 17.8862 108.675 18.3109C108.271 18.7356 108.069 19.3644 108.069 20.1973V26.8856H104.428V14.636H108.069V15.7874C108.797 14.7911 109.954 14.293 111.539 14.293ZM126.416 14.636H130.056V26.8856H126.416V25.7342C125.688 26.7304 124.531 27.2286 122.945 27.2286C121.651 27.2286 120.567 26.7794 119.693 25.8811C118.835 24.9829 118.407 23.7416 118.407 22.1572V14.636H122.047V21.6182C122.047 22.3369 122.241 22.8923 122.629 23.2843C123.034 23.6599 123.543 23.8477 124.158 23.8477C124.855 23.8477 125.405 23.6354 125.809 23.2108C126.213 22.786 126.416 22.1572 126.416 21.3243V14.636ZM135.977 22.2307C136.398 23.3741 137.369 23.9457 138.89 23.9457C139.877 23.9457 140.653 23.6354 141.219 23.0148L144.131 24.7052C142.934 26.3875 141.171 27.2286 138.841 27.2286C136.802 27.2286 135.168 26.6161 133.939 25.3912C132.726 24.1662 132.119 22.6227 132.119 20.7608C132.119 18.9152 132.717 17.3799 133.914 16.1549C135.128 14.9136 136.681 14.293 138.574 14.293C140.338 14.293 141.802 14.9136 142.966 16.1549C144.148 17.3799 144.738 18.9152 144.738 20.7608C144.738 21.2834 144.69 21.7734 144.593 22.2307H135.977ZM135.904 19.4868H141.122C140.766 18.1965 139.909 17.5514 138.549 17.5514C137.142 17.5514 136.26 18.1965 135.904 19.4868ZM58.8531 48.687L55.6496 43.0522H53.8053V48.687H49.9224V31.5374H56.7175C58.3353 31.5374 59.7106 32.109 60.8431 33.2524C61.9755 34.3957 62.5418 35.784 62.5418 37.4172C62.5418 38.4626 62.2506 39.4344 61.6681 40.3327C61.1019 41.2147 60.3496 41.9006 59.4112 42.3907L63.0272 48.687H58.8531ZM53.8053 35.2123V39.6222H56.7175C57.2513 39.6222 57.7043 39.4099 58.0765 38.9853C58.4648 38.5606 58.6589 38.038 58.6589 37.4172C58.6589 36.7966 58.4648 36.274 58.0765 35.8493C57.7043 35.4247 57.2513 35.2123 56.7175 35.2123H53.8053ZM74.5023 47.1681C73.2565 48.4093 71.7357 49.03 69.9398 49.03C68.144 49.03 66.6232 48.4093 65.3775 47.1681C64.1316 45.9104 63.5087 44.3751 63.5087 42.5622C63.5087 40.7492 64.1316 39.2221 65.3775 37.9808C66.6232 36.7231 68.144 36.0943 69.9398 36.0943C71.7357 36.0943 73.2565 36.7231 74.5023 37.9808C75.748 39.2221 76.3709 40.7492 76.3709 42.5622C76.3709 44.3751 75.748 45.9104 74.5023 47.1681ZM67.9498 44.6446C68.4837 45.1836 69.147 45.4531 69.9398 45.4531C70.7326 45.4531 71.396 45.1836 71.9298 44.6446C72.4637 44.1056 72.7307 43.4115 72.7307 42.5622C72.7307 41.7128 72.4637 41.0187 71.9298 40.4797C71.396 39.9407 70.7326 39.6712 69.9398 39.6712C69.147 39.6712 68.4837 39.9407 67.9498 40.4797C67.416 41.0187 67.149 41.7128 67.149 42.5622C67.149 43.4115 67.416 44.1056 67.9498 44.6446ZM78.4299 48.687V30.8024H82.0702V48.687H78.4299ZM84.734 48.687V30.8024H88.3742V48.687H84.734Z" fill="#767676"/>
</g>
<defs>
<filter id="filter0_d_120_2265" x="0" y="0" width="156.085" height="68" filterUnits="userSpaceOnUse" color-interpolation-filters="sRGB">
<feFlood flood-opacity="0" result="BackgroundImageFix"/>
<feColorMatrix in="SourceAlpha" type="matrix" values="0 0 0 0 0 0 0 0 0 0 0 0 0 0 0 0 0 0 127 0" result="hardAlpha"/>
<feOffset dy="4"/>
<feGaussianBlur stdDeviation="2"/>
<feComposite in2="hardAlpha" operator="out"/>
<feColorMatrix type="matrix" values="0 0 0 0 0 0 0 0 0 0 0 0 0 0 0 0 0 0 0.25 0"/>
<feBlend mode="normal" in2="BackgroundImageFix" result="effect1_dropShadow_120_2265"/>
<feBlend mode="normal" in="SourceGraphic" in2="effect1_dropShadow_120_2265" result="shape"/>
</filter>
</defs>
</svg>
