<svg width="186" height="60" viewBox="0 0 186 60" fill="none" xmlns="http://www.w3.org/2000/svg">
<g filter="url(#filter0_d_120_2224)">
<g clip-path="url(#clip0_120_2224)">
<path d="M6.67891 24.5946H4.11099C4.07568 24.5543 4.03532 24.5139 4 24.4685C7.7434 23.2476 9.24178 20.3064 9.96827 16.7648C10.0338 16.7799 10.0944 16.795 10.16 16.8152C10.1801 17.0776 10.2205 17.3449 10.2155 17.6073C10.1852 19.3529 10.1701 21.0984 10.1045 22.839C10.0843 23.4091 10.2861 23.5655 10.8209 23.5554C12.4403 23.5301 14.0598 23.5301 15.6742 23.5554C15.876 23.5554 16.214 23.737 16.2493 23.8883C16.3351 24.2364 16.1131 24.4836 15.7145 24.4887C14.3726 24.5038 13.0255 24.519 11.6836 24.5341C11.1841 24.5341 10.6846 24.5341 10.1196 24.5341C10.1196 25.0386 10.1196 25.4523 10.1196 25.866C10.1196 29.8818 10.1095 33.8976 10.1247 37.9185C10.1247 38.5845 10.1852 39.2705 10.3315 39.9164C10.7452 41.7275 12.5463 42.5649 14.1405 41.6164C14.872 41.1776 15.5581 40.537 16.0374 39.8305C16.9405 38.5188 17.4248 37.0406 17.4097 35.3961C17.3744 29.675 17.3945 23.9539 17.3945 18.2329C17.3945 17.3651 17.3643 16.4671 16.8144 15.7608C16.3754 15.1958 15.7801 14.7518 15.21 14.217C15.4017 14.1969 15.6136 14.1565 15.8255 14.1565C17.3189 14.1666 18.8071 14.2069 20.3005 14.1817C20.7949 14.1716 20.921 14.3633 20.921 14.7972C20.8958 19.3175 20.8756 23.8379 20.8554 28.3582C20.8554 28.6962 20.8554 29.0292 20.8554 29.3672C20.9109 29.3672 20.9664 29.3672 21.0269 29.3672C21.2691 28.8678 21.4961 28.3633 21.7584 27.879C23.4132 24.7914 26.7935 23.4393 30.1282 24.524C32.1815 25.195 33.7201 27.1928 33.7958 29.5539C33.8867 32.3286 33.8261 35.1035 33.8615 37.8782C33.8766 38.9074 33.9724 39.9316 34.0381 40.9607C34.1037 42.0301 34.6788 42.7517 35.5969 43.2409C35.718 43.3066 35.8291 43.3923 35.9199 43.5791H28.3726C28.5945 43.4075 28.7408 43.2511 28.9223 43.1654C29.9214 42.676 30.3805 41.8184 30.3905 40.769C30.4208 37.2374 30.4562 33.7059 30.3551 30.1744C30.3299 29.3067 29.9516 28.338 29.4522 27.6116C28.196 25.7954 25.4262 25.5633 23.61 26.9961C21.9804 28.2825 21.0673 30.018 20.9765 32.0411C20.8504 34.957 20.9159 37.8832 20.9664 40.8044C20.9866 41.8687 21.5113 42.7315 22.5 43.246C22.6312 43.3166 22.7423 43.4226 22.9995 43.6194C21.143 43.6194 19.4731 43.6194 17.7981 43.6194C17.3895 43.6194 17.3945 43.3469 17.3945 43.0594C17.4046 41.9444 17.4147 40.8295 17.4097 39.7145C17.4097 39.4622 17.339 39.21 17.1826 38.9628C16.996 39.4673 16.8244 39.9819 16.6277 40.4813C15.5329 43.2561 12.6875 44.6537 9.90773 43.7657C7.88971 43.12 7.01692 41.5863 6.82016 39.5885C6.73439 38.7105 6.72431 37.8277 6.71927 36.9449C6.70413 33.0753 6.69908 29.2058 6.68899 25.3362C6.68899 25.1092 6.66882 24.8822 6.65368 24.5946H6.67891Z" fill="#767676"/>
<path d="M52.3181 16.1296H60.042C60.0572 16.17 60.0723 16.2053 60.0874 16.2456C59.8604 16.3667 59.6435 16.4928 59.4115 16.6038C57.9332 17.29 57.5245 17.8802 57.6558 19.5098C57.8979 22.5469 58.2107 25.5789 58.4832 28.616C58.7201 31.2747 58.9421 33.9334 59.1793 36.5921C59.2046 36.8696 59.2852 37.1421 59.3358 37.4146C59.3861 37.4146 59.4417 37.4246 59.4921 37.4246C59.9563 36.6175 60.4103 35.8053 60.8794 35.0081C63.407 30.7198 65.9498 26.4416 68.4622 22.1432C68.8002 21.5631 69.219 20.877 69.1887 20.2665C69.1179 18.9699 68.7951 17.6784 67.6903 16.7804C67.5591 16.6745 67.4431 16.5534 67.3271 16.4323C67.2917 16.3919 67.2866 16.3163 67.2412 16.18H74.8642C74.5768 16.3415 74.4002 16.4626 74.2085 16.5382C72.9472 17.0478 72.2409 17.8853 72.362 19.3382C72.5537 21.6186 72.69 23.909 72.8412 26.1944C73.0834 29.8621 73.3205 33.5349 73.5626 37.2027C73.5777 37.3995 73.6232 37.5961 73.7948 37.8232C74.0722 37.3641 74.3597 36.9101 74.6222 36.4459C77.2304 31.8398 79.7782 27.2034 82.4621 22.6427C83.5872 20.7307 84.924 18.9346 86.3063 17.1991C86.8966 16.4575 87.7845 15.8824 88.6524 15.4586C89.7875 14.9037 91.1143 15.4082 91.6137 16.3667C92.1485 17.3959 91.8003 18.8539 90.8569 19.54C89.7975 20.317 88.4404 20.2564 87.5979 19.3382C87.2094 18.9195 86.9825 18.8741 86.5688 19.3231C84.8232 21.2049 83.471 23.349 82.1998 25.5537C78.7641 31.4967 75.3133 37.4398 71.8626 43.3727C71.7212 43.6149 71.5093 43.8115 71.3327 44.0286C71.2723 44.0135 71.2167 43.9932 71.1561 43.9781C70.571 36.8898 69.9858 29.7966 69.4005 22.7083C69.335 22.7083 69.2693 22.7083 69.2038 22.7032C67.1403 26.2751 65.1021 29.8621 63.0136 33.4189C60.93 36.9706 59.028 40.6282 56.8182 44.1043C56.7425 44.0841 56.6719 44.0589 56.5962 44.0386C56.5408 43.5795 56.4702 43.1155 56.4299 42.6564C55.8648 36.5467 55.3097 30.4322 54.7448 24.3227C54.5985 22.7335 54.4168 21.1443 54.2706 19.5552C54.1595 18.3645 53.6803 17.3808 52.7369 16.629C52.6209 16.5332 52.535 16.402 52.313 16.1447L52.3181 16.1296Z" fill="#767676"/>
<path d="M147.553 24.5442H153.259C153.259 24.8418 153.259 25.0638 153.259 25.2908C153.259 30.1492 153.249 35.0075 153.244 39.8659C153.244 41.329 153.541 42.6355 155.019 43.342C155.141 43.4025 155.231 43.5286 155.337 43.6245C153.344 43.6245 151.372 43.6245 149.394 43.6245C147.063 43.6245 144.728 43.6094 142.397 43.6395C141.832 43.6446 141.625 43.5186 141.645 42.908C141.69 41.445 141.66 39.9768 141.66 38.5239C141.418 39.0234 141.151 39.5733 140.878 40.1233C139.445 43.0189 136.534 44.4871 133.356 43.912C130.929 43.4731 129.224 41.677 128.805 39.0688C128.72 38.5542 128.679 38.0245 128.679 37.4997C128.669 34.831 128.644 32.1571 128.679 29.4883C128.71 27.4602 128.472 25.5986 126.374 24.5442H132.196C132.196 24.8267 132.196 25.0285 132.196 25.2303C132.196 29.3723 132.16 33.5193 132.231 37.6612C132.246 38.4836 132.514 39.3816 132.912 40.1081C134.027 42.1463 136.782 42.56 138.84 41.0667C140.656 39.7499 141.524 37.8934 141.6 35.7138C141.69 33.0905 141.66 30.4569 141.615 27.8285C141.589 26.4613 140.883 25.4472 139.647 24.8216C139.541 24.7662 139.445 24.6905 139.223 24.5442C139.511 24.5089 139.662 24.4685 139.814 24.4685C141.307 24.4735 142.795 24.4937 144.289 24.4937C145.182 24.4937 145.182 24.4786 145.176 25.4018C145.172 30.2198 145.192 35.0327 145.151 39.8508C145.136 41.4955 145.797 42.6406 147.29 43.2915C147.497 43.3823 147.81 43.4277 147.987 43.3369C148.955 42.8272 149.692 42.116 149.737 40.9153C149.763 40.325 149.833 39.7399 149.838 39.1545C149.848 35.9358 149.843 32.7171 149.843 29.5034C149.843 29.4177 149.843 29.3369 149.843 29.2512C149.833 27.324 149.601 25.5078 147.427 24.6602C147.467 24.6198 147.507 24.5845 147.548 24.5442H147.553Z" fill="#767676"/>
<path d="M181.795 37.4599C181.77 37.7021 181.786 37.9544 181.719 38.1815C180.716 41.7734 177.982 43.8973 174.258 44.0135C171.398 44.1042 168.931 43.2315 166.953 41.1177C166.913 41.0772 166.847 41.0571 166.736 40.9965C166.585 41.2689 166.459 41.5465 166.292 41.7988C165.092 43.6755 163.043 44.4321 160.733 43.8621C158.775 43.3778 157.464 41.7988 157.317 39.5991C157.216 38.0502 157.216 36.4913 157.211 34.9374C157.196 31.7389 157.211 28.5454 157.201 25.3469C157.201 24.4186 157.186 24.4287 156.288 24.5245C155.748 24.58 155.203 24.58 154.578 24.5245C158.271 23.228 159.749 20.3019 160.359 16.73C160.42 16.7401 160.485 16.7552 160.546 16.7653C160.586 17.0327 160.662 17.3001 160.662 17.5675C160.667 19.3736 160.672 21.1847 160.647 22.9909C160.642 23.45 160.854 23.5105 161.222 23.5105C162.842 23.5105 164.461 23.5206 166.075 23.5408C166.348 23.5408 166.767 23.3541 166.761 23.904C166.751 24.3833 166.479 24.5548 166.02 24.5498C164.486 24.5346 162.953 24.5498 161.419 24.5145C160.864 24.4993 160.647 24.6355 160.647 25.2409C160.677 29.4687 160.662 33.6963 160.682 37.9241C160.682 38.5698 160.733 39.2307 160.874 39.8614C161.454 42.4242 164.057 42.4344 165.445 41.1631C166.242 40.4366 166.242 40.3206 165.732 39.3872C163.714 35.6842 164.017 29.9681 167.357 26.7393C170.122 24.0654 174.248 23.4096 177.704 25.024C179.657 25.9372 180.767 27.607 181.256 29.6705C181.489 30.6492 181.594 31.6582 181.765 32.647C181.857 33.1717 181.66 33.3432 181.124 33.3383C177.154 33.318 173.179 33.3281 169.208 33.3281C168.835 33.3281 168.462 33.3635 168.093 33.3835C167.967 37.1018 169.728 41.3245 173.764 42.051C176.609 42.5605 179.985 41.39 181.306 38.1512C181.408 37.9039 181.524 37.6667 181.635 37.4247C181.689 37.4347 181.746 37.4448 181.8 37.455L181.795 37.4599ZM168.073 32.3796C168.305 32.3898 168.507 32.4098 168.709 32.4098C170.389 32.4098 172.069 32.4098 173.754 32.4098C174.975 32.4098 176.191 32.4301 177.412 32.4049C177.618 32.4049 178.002 32.1778 177.997 32.077C177.901 30.3818 177.931 28.6615 177.134 27.0874C176.635 26.1087 175.923 25.3721 174.829 25.0896C173.234 24.6759 171.837 25.0745 170.641 26.1843C168.865 27.8391 168.356 30.0236 168.073 32.3796Z" fill="#767676"/>
<path d="M83.7725 24.5442H89.2665C88.994 25.6945 88.7469 26.7489 88.4846 27.8033C87.5361 31.6325 86.5473 35.4515 85.6391 39.2908C85.1194 41.4803 85.9822 42.3532 88.2272 41.9546C89.1051 41.7981 89.9577 41.4803 90.8405 41.2332C90.8153 41.0818 90.8254 40.991 90.7851 40.9255C89.3371 38.4887 89.2665 35.8955 89.9728 33.247C90.7699 30.2401 92.3541 27.7175 94.9926 26.0022C97.4596 24.3979 100.169 23.6815 103.095 24.4736C104.654 24.8974 105.885 25.8156 106.228 27.5056C106.586 29.2714 105.976 30.7244 104.573 31.8494C103.317 32.8584 101.849 33.3932 100.315 33.7967C98.0953 34.377 95.8401 34.7301 93.5396 34.7452C93.3984 34.7452 93.131 34.9975 93.131 35.1287C93.1512 36.4303 93.1864 37.7319 93.2824 39.0234C93.3227 39.5733 93.5901 39.6541 94.1904 39.301C95.6031 38.4736 96.9753 37.5754 98.4131 36.7885C99.6239 36.1275 100.865 35.492 102.157 35.0177C103.69 34.4527 104.82 34.7958 105.486 35.7997C106.127 36.7632 106.097 37.7974 105.703 38.8165C104.82 41.0969 103.105 42.5751 100.885 43.4277C98.2465 44.4417 95.6131 44.1945 93.0653 43.0091C92.8938 42.9283 92.6921 42.8577 92.581 42.7163C91.9404 41.9092 91.2896 42.1614 90.5126 42.5449C88.7317 43.4277 86.8449 43.9928 84.8319 44.0079C82.814 44.0231 81.5426 42.5549 81.9714 40.5723C82.5263 38.0094 83.2023 35.4718 83.8331 32.9239C84.2617 31.1936 84.6754 29.453 85.1447 27.7327C85.4625 26.5774 85.1851 25.6693 84.2316 24.9579C84.1003 24.8621 83.9945 24.7359 83.7877 24.5341L83.7725 24.5442ZM93.0956 34.2558C94.0341 34.1298 94.7958 34.039 95.5577 33.9279C97.394 33.6555 99.2001 33.2973 100.754 32.1824C102.515 30.9262 103.181 29.1705 103.044 27.0869C102.954 25.6945 102.045 24.9226 100.663 24.9478C99.639 24.968 98.741 25.3615 97.9237 25.9417C96.0974 27.2433 94.932 29.0444 94.1198 31.0876C93.7313 32.0663 93.4639 33.0956 93.0956 34.2509V34.2558ZM93.9129 40.6681C94.3772 41.0566 94.7454 41.4298 95.1792 41.7124C97.6159 43.2914 101.96 42.5197 103.68 40.1738C104.003 39.7347 104.24 39.1748 104.336 38.635C104.603 37.1668 103.377 36.0368 101.939 36.3798C101.435 36.5009 100.931 36.6775 100.466 36.9096C99.4978 37.404 98.5493 37.9388 97.6059 38.4836C96.3951 39.1799 95.1943 39.9064 93.9078 40.663L93.9129 40.6681Z" fill="#767676"/>
<path d="M125.28 15.9231V23.4755C125.25 23.4906 125.215 23.5007 125.185 23.5158C125.043 23.2081 124.907 22.9003 124.751 22.6027C123.515 20.2365 121.915 18.2135 119.347 17.1995C117.567 16.4982 115.74 16.4225 113.954 17.2297C112.163 18.0369 111.24 19.4848 111.013 21.3969C110.725 23.8286 111.719 25.6398 113.924 26.5882C115.725 27.3652 117.647 27.8445 119.509 28.4852C120.619 28.8686 121.749 29.2167 122.798 29.7212C125.593 31.0581 126.9 33.3638 126.804 36.4311C126.713 39.3724 125.361 41.582 122.687 42.8685C119.726 44.2913 116.663 44.367 113.556 43.3479C112.9 43.1308 112.234 42.9342 111.578 42.7222C110.468 42.374 109.515 42.6162 108.702 43.4537C108.536 43.6253 108.334 43.7514 108.077 43.9582C107.946 41.1028 107.82 38.3633 107.693 35.6289C107.739 35.6037 107.784 35.5835 107.83 35.5583C108.011 35.8862 108.198 36.2142 108.369 36.5471C109.358 38.5147 110.685 40.2098 112.501 41.4711C114.943 43.1662 117.602 43.6404 120.382 42.47C123.293 41.244 124.201 38.0758 123.368 35.5129C123.05 34.5341 122.364 33.8329 121.527 33.2627C120.15 32.3244 118.575 31.8804 117.017 31.376C115.286 30.8109 113.546 30.2459 111.871 29.5446C106.805 27.4156 106.821 20.3072 110.998 17.4366C113.505 15.7112 116.275 15.3681 119.186 16.0593C120.124 16.2813 121.038 16.5941 121.951 16.9068C123.171 17.3256 124.175 17.0834 124.978 16.0542C125.013 16.0088 125.069 15.9735 125.119 15.9382C125.134 15.9281 125.159 15.9382 125.29 15.9281L125.28 15.9231Z" fill="#767676"/>
<path d="M53.0285 37.4999C52.6248 39.6541 51.6462 41.4804 49.7543 42.7014C45.7788 45.2742 38.5342 44.4116 36.2892 38.0548C35.1087 34.7049 35.3458 31.4257 37.2072 28.3532C39.7096 24.2163 45.5922 22.8693 49.5978 25.5028C51.5453 26.7842 52.3777 28.7518 52.7308 30.9615C52.8165 31.5013 52.8267 32.0513 52.9024 32.591C52.9781 33.1207 52.8216 33.3378 52.2365 33.3378C48.2206 33.3176 44.2048 33.3378 40.1939 33.3327C39.1042 33.3327 39.1093 33.3176 39.2051 34.3872C39.3514 36.0368 39.7096 37.626 40.5976 39.0538C41.9193 41.1777 43.8566 42.222 46.3439 42.1766C48.8966 42.1312 50.844 40.986 52.1305 38.7611C52.3879 38.3171 52.6199 37.858 52.867 37.404C52.9225 37.4343 52.9781 37.4696 53.0385 37.4999H53.0285ZM44.1643 32.4296C45.6325 32.4296 47.1056 32.4296 48.5738 32.4296C48.9017 32.4296 49.164 32.3993 49.1438 31.9705C49.0832 30.457 48.9975 28.9435 48.4476 27.5107C47.605 25.3212 45.35 24.3425 43.1958 25.2506C41.7227 25.8711 40.7439 27.0315 40.1587 28.4642C39.7348 29.5035 39.5331 30.6336 39.2002 31.7132C39.0285 32.2631 39.2051 32.4347 39.75 32.4296C41.2181 32.4145 42.6912 32.4245 44.1594 32.4245L44.1643 32.4296Z" fill="#767676"/>
<path d="M149.105 17.7035C149.115 16.2757 150.205 15.2213 151.648 15.2415C153.02 15.2566 154.115 16.3817 154.105 17.7539C154.089 19.1161 152.98 20.1755 151.562 20.1705C150.149 20.1654 149.095 19.106 149.105 17.7035Z" fill="#767676"/>
</g>
</g>
<defs>
<filter id="filter0_d_120_2224" x="0" y="0" width="185.8" height="68" filterUnits="userSpaceOnUse" color-interpolation-filters="sRGB">
<feFlood flood-opacity="0" result="BackgroundImageFix"/>
<feColorMatrix in="SourceAlpha" type="matrix" values="0 0 0 0 0 0 0 0 0 0 0 0 0 0 0 0 0 0 127 0" result="hardAlpha"/>
<feOffset dy="4"/>
<feGaussianBlur stdDeviation="2"/>
<feComposite in2="hardAlpha" operator="out"/>
<feColorMatrix type="matrix" values="0 0 0 0 0 0 0 0 0 0 0 0 0 0 0 0 0 0 0.25 0"/>
<feBlend mode="normal" in2="BackgroundImageFix" result="effect1_dropShadow_120_2224"/>
<feBlend mode="normal" in="SourceGraphic" in2="effect1_dropShadow_120_2224" result="shape"/>
</filter>
<clipPath id="clip0_120_2224">
<rect width="177.8" height="31.6872" fill="white" transform="translate(4 14.1565)"/>
</clipPath>
</defs>
</svg>
