<svg width="203" height="60" viewBox="0 0 203 60" fill="none" xmlns="http://www.w3.org/2000/svg">
<g filter="url(#filter0_d_120_2257)">
<g clip-path="url(#clip0_120_2257)">
<mask id="mask0_120_2257" style="mask-type:luminance" maskUnits="userSpaceOnUse" x="4" y="9" width="196" height="41">
<path d="M199.645 9.80664H4V49.8295H199.645V9.80664Z" fill="white"/>
</mask>
<g mask="url(#mask0_120_2257)">
<path d="M93.5579 30.877C95.2219 30.5352 96.0454 29.3762 96.0454 27.6919C96.0454 25.549 94.4323 24.3149 92.4372 24.3149H87.5387V34.9293H88.7952V31.0938H91.4439L94.704 34.9293H96.2067L92.8278 31.0271L93.5494 30.877H93.5579ZM88.8036 30.0182V25.4573H92.4372C93.7786 25.4573 94.7804 26.3494 94.7804 27.7336C94.7804 29.1177 93.7871 30.0099 92.4372 30.0099H88.8036V30.0182ZM105.817 33.687H99.5346V30.2266H105.596V29.076H99.5346V25.5573H105.817V24.3316H98.2866V34.946H105.817V33.687ZM98.7536 49.5794H106.284V48.3203H100.002V44.86H106.055V43.7093H100.002V40.1907H106.284V38.965H98.7536V49.5794ZM104.51 20.4377H105.749V9.83999H104.51V14.6761H98.1593V9.83999H96.9028V20.4294H98.1593V15.8101H104.51V20.4294V20.4377ZM94.7379 46.9028L88.6254 38.9566H87.5472V49.571H88.8036V40.9995L95.3237 49.571H96.0029V38.9566H94.7464V46.9028H94.7379ZM133.273 24.3233H132.033V34.9377H133.273V24.3233ZM89.9413 20.4377H91.2062V10.8989H94.7549V9.80664H86.3926V10.8989H89.9413V20.421V20.4377ZM150.838 34.1789C149.522 34.1789 148.181 33.687 147.493 32.5196L146.474 33.0616C147.332 34.7792 148.945 35.2462 150.795 35.2462C152.816 35.2462 155.074 34.4624 155.074 32.0277C155.074 29.5929 152.952 29.0593 150.94 28.8008C149.853 28.6674 148.07 28.4089 148.07 26.9248C148.07 25.4406 149.607 24.9653 150.812 24.9653C151.755 24.9653 152.935 25.3572 153.589 26.1243L154.556 25.6157C153.724 24.3233 152.222 23.9481 150.753 23.9564C148.996 23.9564 146.839 24.7318 146.839 26.8664C146.839 29.2427 148.97 29.6847 150.863 29.9098C152.086 30.0515 153.835 30.4434 153.835 32.036C153.835 33.6286 152.179 34.1956 150.838 34.1956V34.1789ZM160.516 49.5794H161.781V38.965H160.516V49.5794ZM168.165 38.965H166.646L162.087 44.1679L167.07 49.5794H168.624L163.521 44.0929L168.165 38.9566V38.965ZM166.298 34.946H167.673L163.029 24.3316H161.272L156.628 34.946H157.986L158.946 32.7864H165.347L166.289 34.946H166.298ZM159.429 31.6358L162.155 25.2154L164.88 31.6358H159.429ZM199.662 25.549V24.3233H192.132V34.9377H199.662V33.6786H193.38V30.2183H199.433V29.0676H193.38V25.549H199.662ZM177.071 32.2611L170.958 24.3149H169.88V34.9293H171.145V26.3578L177.665 34.9293H178.345V24.3149H177.088V32.2611H177.08H177.071ZM155.753 45.5104C157.417 45.1685 158.241 44.0095 158.241 42.3252C158.241 40.1823 156.628 38.9483 154.633 38.9483H149.734V49.5627H150.991V45.7272H153.639L156.9 49.5627H158.402L155.023 45.6605L155.745 45.5104H155.753ZM150.999 44.6516V40.0906H154.641C155.983 40.0906 156.984 40.9828 156.984 42.3669C156.984 43.751 155.991 44.6432 154.641 44.6432H150.999V44.6516ZM186.299 34.0372C183.71 34.0372 182.038 32.3112 182.021 29.718C181.995 27.1249 183.752 25.2988 186.299 25.2988C187.276 25.2988 188.227 25.6073 188.991 26.2244L189.797 25.4322C188.812 24.5817 187.615 24.1065 186.308 24.1065C183.014 24.1065 180.781 26.3995 180.798 29.718C180.815 33.0949 182.988 35.2045 186.308 35.2045C187.666 35.2045 188.923 34.7959 189.95 33.9204L189.109 33.0449C188.328 33.687 187.284 34.0455 186.316 34.0455L186.299 34.0372ZM108.754 40.0489H112.303V49.571H113.56V40.0489H117.108V38.9566H108.746V40.0489H108.754ZM121.421 32.7781H127.822L128.765 34.9377H130.14L125.496 24.3233H123.739L119.095 34.9377H120.453L121.413 32.7781H121.421ZM124.622 25.2071L127.347 31.6274H121.896L124.622 25.2071ZM115.979 32.2528L109.867 24.3066H108.788V34.921H110.045V26.3494L116.565 34.921H117.244V24.3066H115.988V32.2528H115.979ZM142 38.7398C138.766 38.7398 136.669 41.1329 136.669 44.3514C136.669 47.5699 138.774 49.8378 142 49.8378C145.226 49.8378 147.281 47.5699 147.315 44.3347C147.349 41.1245 145.201 38.7482 142 38.7482V38.7398ZM142 48.7122C139.428 48.7122 137.959 46.8778 137.891 44.3847C137.823 41.8666 139.394 39.8238 142 39.8238C144.606 39.8238 146.126 41.85 146.092 44.3681C146.05 46.8611 144.581 48.7122 142 48.7122ZM116.073 19.1536H109.79V15.6933H115.843V14.5427H109.79V11.0323H116.073V9.80664H108.542V20.421H116.073V19.162V19.1536ZM130.539 48.1702L127.415 38.9316H126.642L123.611 48.1702L120.665 38.9316H119.214L123.009 49.546H124.214L125.462 46.2608L127.024 41.358L128.612 46.2191L129.894 49.546H131.099L134.826 38.9316H133.375L130.522 48.1702H130.548H130.539ZM140.26 34.1455C138.944 34.1455 137.602 33.6536 136.915 32.4863L135.896 33.0282C136.745 34.7459 138.367 35.2128 140.217 35.2128C142.238 35.2128 144.496 34.429 144.496 31.9943C144.496 29.5596 142.374 29.026 140.362 28.7675C139.275 28.6341 137.492 28.3756 137.492 26.8914C137.492 25.4072 139.029 24.9319 140.234 24.9319C141.177 24.9319 142.357 25.3238 143.01 26.0909L143.978 25.5823C143.146 24.2899 141.644 23.9147 140.175 23.923C138.417 23.923 136.261 24.6985 136.261 26.833C136.261 29.2177 138.392 29.6513 140.285 29.8764C141.508 30.0182 143.257 30.4101 143.257 32.0027C143.257 33.5952 141.601 34.1622 140.26 34.1622V34.1455Z" fill="#767676"/>
<path d="M73.6919 9.80664V41.5581H71.0177L58.9878 25.7241V49.8295H67.6897C74.7532 49.8295 80.5431 43.9095 80.5431 36.6553V9.80664H73.6919ZM69.3877 9.80664H16.8534C9.78149 9.80664 4 15.7267 4 22.9808V49.8295H54.675V18.078H58.1728L69.3792 32.6447V9.80664H69.3877ZM29.6644 22.097H22.4142V41.5581H18.1014V22.097H10.8427V18.0697H29.6729V22.097H29.6644ZM52.5696 41.5665H47.4503L40.7859 33.7286H36.6344V41.5665H32.3216V18.078C35.9467 18.078 39.5718 18.1114 43.2054 18.078C48.5964 18.1114 51.4404 21.7968 51.4404 25.8742C51.4404 29.1093 50.0057 32.3612 45.6505 33.2617L52.5781 41.2663V41.5581L52.5696 41.5665ZM47.1192 25.9742C47.1192 24.0898 45.9052 22.2054 43.1969 22.2054H36.6259V29.743H43.1969C45.9476 29.743 47.1192 27.8586 47.1192 25.9742Z" fill="#767676"/>
</g>
</g>
</g>
<defs>
<filter id="filter0_d_120_2257" x="0" y="0" width="202.361" height="68" filterUnits="userSpaceOnUse" color-interpolation-filters="sRGB">
<feFlood flood-opacity="0" result="BackgroundImageFix"/>
<feColorMatrix in="SourceAlpha" type="matrix" values="0 0 0 0 0 0 0 0 0 0 0 0 0 0 0 0 0 0 127 0" result="hardAlpha"/>
<feOffset dy="4"/>
<feGaussianBlur stdDeviation="2"/>
<feComposite in2="hardAlpha" operator="out"/>
<feColorMatrix type="matrix" values="0 0 0 0 0 0 0 0 0 0 0 0 0 0 0 0 0 0 0.25 0"/>
<feBlend mode="normal" in2="BackgroundImageFix" result="effect1_dropShadow_120_2257"/>
<feBlend mode="normal" in="SourceGraphic" in2="effect1_dropShadow_120_2257" result="shape"/>
</filter>
<clipPath id="clip0_120_2257">
<rect width="194.361" height="40.3867" fill="white" transform="translate(4 9.80664)"/>
</clipPath>
</defs>
</svg>
