<svg width="274" height="258" viewBox="0 0 274 258" fill="none" xmlns="http://www.w3.org/2000/svg">
<path d="M38.0962 255.017C38.4716 255.239 38.8691 255.445 39.2887 255.63C44.8756 258.14 49.5792 256.974 53.8191 252.566C79.9798 225.315 106.199 198.116 132.404 170.91C155.039 147.41 177.644 123.895 200.338 100.453C205.145 95.4921 210.268 90.8334 215.251 86.0344V99.1467C214.758 118.623 214.228 138.1 213.794 157.576C213.639 164.656 213.706 171.744 213.669 178.824C213.794 184.716 217.092 188.777 222.686 189.958C225.652 190.586 228.604 191.339 231.585 191.863C238.372 193.051 245.012 195.038 251.894 195.754" stroke="#BE79FF" stroke-miterlimit="10"/>
<path d="M251.894 195.754C259.328 198.847 266.821 195.421 268.632 187.987C269.089 186.104 269.229 184.103 269.273 182.154C270.038 150.754 270.76 119.361 271.51 87.9613C272.04 65.7605 272.563 43.5597 273.145 21.3663C273.343 13.9242 269.655 9.25077 262.147 7.79631C258.106 8.02518 254.139 7.13184 250.097 7.13184C203.164 7.17613 156.231 7.16137 109.298 7.16875C107.097 7.16875 104.881 7.11707 102.739 7.81846C100.237 8.7118 98.5141 10.5649 96.9168 12.5657C92.6548 19.4024 93.862 27.5902 101.046 31.1562C103.365 32.1086 105.794 32.1086 108.245 32.1086C135.503 32.0939 162.768 32.0939 190.025 32.1308C191.284 32.1308 192.719 31.5328 193.823 32.7288C194.022 32.8543 194.235 32.9281 194.456 32.9724" stroke="#BE79FF" stroke-miterlimit="10"/>
<path d="M251.894 195.753C248.103 194.661 246.653 191.656 245.821 188.186C245.512 186.879 245.173 185.565 245.063 184.214C246.314 170.762 244.974 157.221 246.299 143.77C246.358 143.157 246.417 142.544 246.402 141.931C245.902 125.6 247.021 109.291 247.3 92.9742C247.536 79.6257 247.698 66.2624 248.198 52.4414C244.901 55.594 241.699 58.5324 238.894 61.8031C233.05 68.6102 226.572 74.7825 220.227 81.0876C219.756 81.5527 219.336 82.0252 218.961 82.5125L215.244 86.0342" stroke="#BE79FF" stroke-miterlimit="10"/>
<path d="M193.816 32.7215C194.81 32.2046 195.855 31.9832 196.988 31.9832C208.633 32.0127 220.286 31.9979 231.931 32.0127C232.247 32.0127 232.564 32.1751 233.182 32.3375C230.208 35.6747 227.499 38.9454 224.555 41.9872C212.093 54.8558 199.44 67.5398 187.073 80.5044C172.675 95.588 158.152 110.546 143.681 125.556C130.232 139.51 116.813 153.478 103.372 167.44C89.0773 182.28 74.7235 197.06 60.5243 211.989C52.5157 220.413 44.1316 228.475 36.2775 237.047C35.0629 236.98 33.8852 237.379 32.6412 237.099C23.6977 235.105 14.6879 233.407 5.72229 231.487C5.00092 231.332 4.30899 231.081 3.83789 230.446C9.74871 223.056 16.6974 216.64 23.2192 209.84C56.0121 175.664 88.8933 141.569 121.752 107.46C145.756 82.5421 169.782 57.6392 193.794 32.7288L193.816 32.7215Z" stroke="#BE79FF" stroke-miterlimit="10"/>
<path d="M71.6689 1.79387C73.1632 1.13678 74.7384 1.07033 76.3431 1.07033C127.023 1.0851 177.71 1.01127 228.39 1.18108C235.391 1.20323 242.14 3.77252 249.045 4.96119C253.439 5.72164 257.782 6.83648 262.14 7.79627" stroke="#BE79FF" stroke-miterlimit="10"/>
<path d="M36.2926 237.047C32.2441 244.038 33.4807 251.37 39.2811 255.637C29.0273 253.607 18.6852 251.96 8.55662 249.435C0.835019 247.508 -1.39534 237.386 3.86036 230.446" stroke="#BE79FF" stroke-miterlimit="10"/>
<path d="M101.047 31.1489C91.6542 29.222 82.2838 27.2285 72.8765 25.3976C63.3957 23.5518 59.5606 14.2049 65.0887 6.14999C66.6418 3.72098 68.7397 2.11886 71.6693 1.78662C80.5245 3.72836 89.365 5.69963 98.2349 7.56753C99.1109 7.75211 99.9721 7.86286 100.73 8.23201L101.496 8.3649" stroke="#BE79FF" stroke-miterlimit="10"/>
</svg>
