<svg width="548" height="525" viewBox="0 0 548 525" fill="none" xmlns="http://www.w3.org/2000/svg">
<g clip-path="url(#clip0_1268_3723)">
<path d="M345.769 13.2381C365.886 16.886 385.642 21.7971 404.726 29.3121C408.912 30.962 409.654 32.6828 408.409 36.9817C400.424 64.5277 392.762 92.1705 385.009 119.788C384.739 120.748 384.681 121.766 384.526 122.765C384.455 123.107 384.384 123.429 384.313 123.732C383.681 126.523 383.113 128.089 382.894 129.442C382.559 131.498 382.094 133.535 381.527 135.546C376.373 153.65 371.904 171.657 366.338 190.419C370.981 188.466 374.367 185.765 377.934 183.484C411.202 162.267 444.489 141.075 477.731 119.813C482.865 116.526 488.076 113.355 493.152 109.978C495.39 108.489 497.673 106.994 500.44 106.582C503.349 107.774 504.342 110.674 505.89 112.975C516.319 128.456 525.007 144.872 531.966 162.202C533.063 164.941 533.211 166.63 530.328 168.448C492.655 192.159 455.118 216.07 417.413 239.736C405.945 246.935 393.659 246.026 381.352 241.857C378.089 239.588 374.451 237.873 371.504 235.141C354.283 221.303 337.591 206.815 320.261 193.1C307.239 181.028 303.408 166.25 307.316 149.19C317.12 114.541 326.388 79.7509 335.888 45.0186C338.255 36.3758 340.655 27.7459 342.951 19.0838C343.512 16.9763 344.034 14.7978 345.776 13.2317L345.769 13.2381Z" stroke="#BE79FF" stroke-miterlimit="10"/>
<path d="M164.745 189.897C149.195 185.385 133.664 180.79 118.082 176.388C107.549 173.417 97.2618 169.575 86.4586 167.59C84.4591 168.377 84.027 170.278 83.3562 171.992C77.0871 188.131 72.4885 204.759 69.3023 221.754C68.4445 226.337 66.7934 230.932 67.8189 235.747C69.1991 237.461 71.2566 237.783 73.185 238.357C87.4325 242.591 101.77 246.478 116.082 250.467C135.741 255.939 155.193 262.178 175.142 266.612C176.529 267.205 177.986 267.469 179.463 267.656C181.011 268.088 182.585 268.449 184.062 269.106C186.19 270.775 188.893 270.44 191.299 271.065C211.319 276.241 227.062 270.234 238.781 253.045C244.973 243.971 251.765 235.295 258.434 226.556C265.18 217.707 271.262 208.349 278.731 200.054C283.214 196.168 284.652 190.58 286.909 185.45C288.354 180.371 288.773 175.228 288.541 169.923C288.109 160.237 284.11 151.961 279.118 143.989C274.113 134.411 268.895 124.944 263.6 115.534C259.569 108.373 256.499 100.62 251.146 94.22C249.817 92.1125 248.372 90.0694 247.173 87.891C237.853 70.8761 228.61 53.8225 219.239 36.8334C218.342 35.2157 218.2 32.7344 215.575 32.4766C213.563 33.2951 211.396 33.5916 209.397 34.5583C195.278 41.4094 181.895 49.4528 169.357 58.9012C165.938 62.2913 160.398 63.6125 159.282 69.2391C162.739 77.7272 167.706 85.4226 172.079 93.4273C188.441 123.41 205.004 153.295 221.425 183.245C226.037 191.663 230.771 200.022 235.189 208.503C234.015 209.296 233.248 208.768 232.493 208.542C212.222 202.516 186.384 196.445 166.106 190.444L164.732 189.89L91.025 54.5315" stroke="#BE79FF" stroke-miterlimit="10"/>
<path d="M162.359 402.531C189.79 383.351 221.625 366.91 250.404 347.929C245.431 365.936 240.471 382.777 235.686 399.663C226.03 433.693 216.382 467.729 206.707 501.753C205.159 507.205 205.669 508.204 210.719 510.318C216.02 512.542 221.329 514.752 227.037 515.796C229.042 516.422 231.242 516.531 232.899 518.052C243.612 520.16 254.351 522.164 265.032 524.439C268.573 525.193 269.966 524.291 270.933 520.688C275.745 502.797 280.756 484.95 285.942 467.162C289.56 454.755 292.23 442.072 296.913 429.981C299.389 423.968 299.112 424.812 300.318 420.661C304.149 407.43 308.69 394.359 310.586 380.625C311.251 366.794 306.639 354.909 296.384 345.738C288.477 338.667 280.118 332.061 271.598 325.694C270.927 325.288 270.198 325.068 269.431 324.946C265.69 322.065 261.917 319.223 258.208 316.303C245.521 306.3 234.009 294.19 216.549 292.798C215.891 292.746 215.221 292.766 214.569 292.83C212.879 293.004 213.376 293.069 210.119 293.578C205.778 294.487 201.728 296.04 197.929 298.399C162.598 320.383 127.582 342.87 92.4246 365.131C88.7741 367.445 84.3496 368.837 82.0212 372.936C81.731 375.256 82.8274 377.202 83.7046 379.207C89.8641 393.334 97.4102 406.733 105.298 419.933C107.794 424.109 110.116 428.498 113.922 431.76C116.476 432.488 118.004 430.471 119.752 429.375C133.019 421.067 146.189 412.611 159.476 404.336L162.365 402.538L162.359 402.531Z" stroke="#BE79FF" stroke-miterlimit="10"/>
<path d="M382.513 334.452C406.674 378.601 430.828 422.75 455.008 466.885C456.014 468.722 457.008 470.153 454.634 471.964C437.787 484.789 420.102 496.268 401.14 505.736C400.727 505.942 400.153 505.833 399.657 505.871C396.303 503.97 395.271 500.335 393.633 497.306C378.515 469.373 363.177 441.55 348.007 413.643C342.841 404.143 337.817 394.565 332.347 385.227C324.808 368.85 326.659 353.336 336.617 338.558C350.632 320.132 363.867 301.132 377.541 282.447C377.941 281.861 378.405 281.32 378.882 280.798C381.327 277.691 384.184 275.003 387.183 272.445C389.692 270.015 392.968 268.868 395.916 267.166C400.592 264.64 405.726 264.556 410.834 264.337C452.048 274.398 492.3 287.823 533.127 299.256C537.197 300.397 541.234 301.667 545.317 302.756C547.304 303.284 547.936 304.129 547.613 306.352C544.492 327.885 538.319 348.561 530.534 368.811C529.709 370.951 528.296 371.118 526.555 370.751C523.588 370.119 520.66 369.352 517.712 368.637C515.997 367.135 513.862 366.852 511.714 366.6C468.204 355.038 424.088 340.517 380.443 328.169C380.649 330.276 380.585 330.012 382.526 334.459L382.513 334.452Z" stroke="#BE79FF" stroke-miterlimit="10"/>
<path d="M218.104 292.94L207.978 290.607C192.801 287.623 177.496 285.122 162.52 281.326C147.84 277.601 135.244 280.566 122.738 288.641C87.6775 311.289 52.2686 333.395 17.0532 355.798C15.8729 356.546 13.6735 356.565 13.8476 358.853C15.4149 360.31 17.4014 360.748 19.4073 361.148C36.9892 364.628 54.5582 368.179 72.1402 371.673C74.8555 372.214 77.5966 372.588 80.3507 372.8L82.0018 372.929" stroke="#BE79FF" stroke-miterlimit="10"/>
<path d="M215.588 32.483L147.64 18.6455C147.64 18.6455 120.764 30.0081 91.0376 54.5444L159.295 69.2455" stroke="#BE79FF" stroke-miterlimit="10"/>
<path d="M86.4582 167.597L17.8977 154.23C17.8977 154.23 0.580254 196.071 0.322266 222.154L67.8185 235.753" stroke="#BE79FF" stroke-miterlimit="10"/>
<path d="M13.854 358.853C13.854 358.853 29.3398 397.446 46.1993 418.367L113.908 431.753" stroke="#BE79FF" stroke-miterlimit="10"/>
<path d="M228.862 516.273C170.008 510.292 137.56 492.814 137.56 492.814L162.372 407.591L164.365 401.146" stroke="#BE79FF" stroke-miterlimit="10"/>
<path d="M296.9 429.974L331.528 493.329L399.65 505.871" stroke="#BE79FF" stroke-miterlimit="10"/>
<path d="M251.152 94.2264L277.06 0.373779L345.769 13.2381" stroke="#BE79FF" stroke-miterlimit="10"/>
<path d="M500.44 106.582L432.905 92.7634L384.312 123.725" stroke="#BE79FF" stroke-miterlimit="10"/>
<path d="M278.737 200.061L303.807 220.414C303.807 220.414 312.334 228.161 330.167 231.648L381.352 241.863" stroke="#BE79FF" stroke-miterlimit="10"/>
<path d="M269.411 324.94L308.071 272.864C308.071 272.864 321.641 248.302 351.877 253.342L410.821 264.343" stroke="#BE79FF" stroke-miterlimit="10"/>
<path d="M382.513 334.452C382.513 334.452 466.224 362.218 517.699 368.63" stroke="#BE79FF" stroke-miterlimit="10"/>
</g>
<defs>
<clipPath id="clip0_1268_3723">
<rect width="548" height="525" fill="white"/>
</clipPath>
</defs>
</svg>
