<svg width="20" height="22" viewBox="0 0 20 22" fill="none" xmlns="http://www.w3.org/2000/svg">
<path d="M15.2653 15.4898C14.1429 16.3878 12.5714 17.0612 11 17.0612C7.40817 17.0612 4.93878 14.3673 4.93878 10.7755C4.93878 7.18367 7.40817 4.71428 11 4.71428C12.5714 4.71428 14.1429 5.16326 15.2653 6.28571L15.9388 6.95918L19.5306 3.59183L18.6327 2.91836C16.6122 1.12244 13.9184 0 11 0C4.71429 0 0 4.71428 0 11C0 17.2857 4.71429 22 11 22C13.9184 22 16.6122 20.8776 18.6327 19.0816L19.5306 18.4082L15.9388 14.8163L15.2653 15.4898Z" fill="#CED2DA"/>
<path d="M10.7754 14.5919C12.7592 14.5919 14.3673 12.9838 14.3673 11C14.3673 9.01633 12.7592 7.4082 10.7754 7.4082C8.79172 7.4082 7.18359 9.01633 7.18359 11C7.18359 12.9838 8.79172 14.5919 10.7754 14.5919Z" fill="#EF4335"/>
</svg>
