<svg width="616" height="311" viewBox="0 0 616 311" fill="none" xmlns="http://www.w3.org/2000/svg">
<g clip-path="url(#clip0_135_2044)">
<path d="M137.242 301.454C117.271 294.916 100.637 282.889 86.4418 267.599C64.2083 243.66 51.0253 215.136 47.4816 182.414C42.7394 138.6 53.5358 99.1621 80.8008 64.4644C89.2003 54.6621 98.0854 45.3484 108.345 37.4484C118.397 30.4943 128.594 23.8105 140.073 19.3823C154.682 12.844 170.189 10.3805 185.945 9.00838C190.542 8.60299 195.026 10.6508 199.655 9.7672C204.201 11.9189 209.242 11.5343 214.016 12.4802C251.064 19.8501 279.58 39.8392 300.677 70.9923C302.102 73.1024 302.97 75.5868 304.107 77.9048C306.638 80.3372 306.72 83.3932 306.152 86.5325C304.21 97.3638 298.362 104.661 287.421 107.291C281.997 107.738 276.914 106.532 272.079 104.12C272.048 104.058 272.027 104.006 272.007 103.944C271.438 102.332 270.426 100.919 269.279 99.661C262.305 92.0625 256.644 83.2893 248.616 76.5639C235.164 65.296 220.029 58.1444 202.734 55.5873C196.948 54.7349 191.162 53.8514 185.304 54.9844C158.928 56.3981 136.725 67.2294 118.831 86.3454C101.598 104.754 91.7315 126.802 89.3966 152.258C86.8137 180.407 93.7359 205.771 110.597 228.213C117.767 237.755 126.631 245.718 136.829 252.121C140.724 254.564 144.991 255.458 149.247 256.622C150.652 259.439 151.902 259.449 153.752 260.083C175.82 267.703 197.795 266.933 219.657 259.189C228.624 255.988 236.941 251.56 244.628 245.926C252.635 240.209 260.167 233.972 266.169 226.061C269.93 221.456 273.794 216.914 276.542 211.581C290.707 187.102 305.088 162.757 319.387 138.361C329.419 121.261 339.285 104.058 349.565 87.1042C353.812 80.2436 358.058 73.3727 363.213 67.1358C371.582 56.8866 381.149 47.8848 391.46 39.6417C401.926 31.6897 413.673 26.0246 425.45 20.4114C444.719 12.896 464.411 8.06246 485.301 11.0769C486.138 11.2017 487.016 11.1393 487.822 10.7651C487.905 10.7755 487.998 10.7963 488.08 10.8067" stroke="#BE79FF" stroke-miterlimit="10"/>
<path d="M488.091 10.8169C507.597 13.9561 526.648 18.6337 543.778 29.0285C583.595 53.1859 606.531 88.8815 612.978 134.878C619.787 183.422 606.697 226.581 574.018 262.91C544.449 295.789 507.214 311.901 462.789 309.708C451.672 309.157 440.731 307.088 430.048 303.793C428.746 302.4 426.711 303.221 425.296 302.192C414.489 299.417 405.139 293.71 396.14 287.369C382.254 277.567 370.611 265.54 361.188 251.32C355.217 242.308 354.411 233.14 359.98 223.649C361.292 221.737 363.017 220.198 364.608 218.535C367.346 216.061 370.435 214.315 374.165 213.92C383.639 212.163 390.406 216.373 395.665 223.837C405.769 238.181 418.229 249.771 434.212 257.245C456.931 267.474 480.053 268.368 503.536 260.249C512.328 257.672 520.263 253.378 527.619 247.942C535.709 242.745 542.001 235.593 548.385 228.535C566.734 205.698 575.041 179.493 573.161 150.346C571.652 126.968 563.8 105.856 548.107 88.0187C532.702 70.5036 513.775 59.5995 490.736 56.0653C485.766 55.3064 480.797 55.4728 475.827 55.8782C453.955 54.4541 435.142 62.7699 417.557 74.6823C401.936 85.2641 390.964 99.9207 381.572 116.116C364.608 145.398 347.561 174.649 330.132 203.66C329.594 204.44 329.057 205.22 328.582 206.041C327.89 207.236 327.291 208.473 326.65 209.689C325.545 211.467 324.398 213.224 323.478 215.126C319.656 221.072 317.104 227.818 312.207 233.078C306.183 240.77 301.276 249.283 294.736 256.622C266.149 288.689 231.125 307.306 187.815 308.918C171.78 309.51 156.211 307.067 140.889 302.556C139.66 302.203 138.451 301.828 137.242 301.433" stroke="#BE79FF" stroke-miterlimit="10"/>
<path d="M199.665 9.76704C185.18 7.20993 170.985 3.1144 156.273 1.79426C136.023 -0.0352149 116.434 2.55308 97.5585 10.1516C97.1969 10.2556 96.8353 10.3907 96.4841 10.5778C84.7578 14.5798 74.1473 20.6192 64.3633 28.1969C53.8251 35.3901 44.8264 44.2153 36.9227 54.2254C16.6936 78.8506 5.41155 107.135 2.2811 138.901C-0.942343 171.686 5.45288 202.371 21.7354 230.874C48.1221 277.079 90.5434 296.527 140.879 302.577" stroke="#BE79FF" stroke-miterlimit="10"/>
<path d="M271.79 103.372C259.247 100.877 245.3 97.9977 232.871 95.2639C228.046 94.2036 224.543 90.7942 221.744 86.6571C212.642 73.227 201.215 62.3749 186.947 54.7244" stroke="#BE79FF" stroke-miterlimit="10"/>
<path d="M487.832 10.7754C486.655 10.5467 485.477 10.3076 484.299 10.0789C464.679 6.13929 445.246 0.806784 424.934 2.26205C410.573 3.29113 396.471 5.55719 383.153 11.4198C370.363 15.5362 358.833 22.0433 348.171 30.172C337.157 37.677 327.549 46.6996 319.387 57.2711C313.632 63.5391 308.911 70.5452 304.851 78.019C304.613 77.9255 304.365 77.8839 304.117 77.9151" stroke="#BE79FF" stroke-miterlimit="10"/>
<path d="M285.995 107.675C284.828 109.068 283.299 111.272 282.431 112.852C277.999 120.866 273.246 128.693 268.576 136.562C257.315 155.585 246.291 174.753 235.02 193.775C234.131 195.282 232.757 196.727 232.085 198.422C227.849 205.5 223.727 212.371 219.491 219.46C214.036 225.437 208.158 230.978 201.855 236.061C194.303 241.258 186.41 245.863 178.093 249.709C168.701 253.108 159.217 256.144 149.175 256.934" stroke="#BE79FF" stroke-miterlimit="10"/>
<path d="M477.129 55.7014C514.705 78.2684 534.758 122.301 527.412 165.782C523.962 186.197 515.707 204.149 503.288 220.396C497.575 226.758 491.376 232.62 484.815 238.088C477.532 242.817 470.238 247.537 462.127 250.79C452.85 254.626 444.626 255.936 434.759 257.36" stroke="#BE79FF" stroke-miterlimit="10"/>
<path d="M373.762 213.972L371.871 213.421C370.311 212.787 368.627 212.496 366.974 212.153C355.372 209.762 343.759 207.402 332.146 205.022L329.491 204.617" stroke="#BE79FF" stroke-miterlimit="10"/>
<path d="M429.604 303.097C385.209 297.816 342.561 280.187 316.608 241.747C314.789 239.055 312.806 236.414 312.217 233.088" stroke="#BE79FF" stroke-miterlimit="10"/>
</g>
<defs>
<clipPath id="clip0_135_2044">
<rect width="614.282" height="309.722" fill="white" transform="translate(0.958618 0.702881)"/>
</clipPath>
</defs>
</svg>
