<svg width="584" height="584" viewBox="0 0 584 584" fill="none" xmlns="http://www.w3.org/2000/svg">
<mask id="path-1-inside-1_231_44" fill="white">
<path fill-rule="evenodd" clip-rule="evenodd" d="M0 291.857C0 51.517 51.5063 0 291.857 0C532.207 0 583.713 51.517 583.713 291.857C583.713 532.196 532.207 583.713 291.857 583.713C51.5063 583.713 0 532.196 0 291.857ZM401.116 486.053C384.241 495.894 364.409 503.752 345.514 508.728L292.006 373.389L238.05 508.728C228.621 506.184 217.583 502.405 208.565 498.626C207.145 498.034 205.728 497.452 204.318 496.873L204.312 496.87L204.312 496.87C196.809 493.788 189.464 490.771 182.411 486.615L227.723 373.202C230.417 366.654 234.945 361.079 240.782 357.15C246.619 353.221 254.552 351.5 261.586 351.463L321.828 351.126C328.938 351.126 336.945 353.072 342.857 357.038C348.769 361.004 353.371 366.654 356.103 373.277L401.116 486.053ZM345.813 74.835C364.708 79.8116 384.54 87.6692 401.415 97.51V97.5475L356.402 210.324C353.67 216.947 349.068 222.597 343.156 226.563C337.244 230.529 329.237 232.475 322.127 232.475L261.885 232.138C254.851 232.101 246.918 230.38 241.081 226.451C235.244 222.522 230.716 216.947 228.022 210.399L182.148 98.1461C190.53 93.1696 199.884 88.6795 208.864 84.9378C217.882 81.1586 228.92 77.3794 238.349 74.835L292.306 210.174L345.813 74.835ZM486.054 182.448C495.895 199.323 503.753 219.154 508.729 238.05L373.39 291.557L508.729 345.513C506.185 354.943 502.405 365.981 498.626 374.998C498.034 376.421 497.451 377.839 496.871 379.252L496.871 379.252C493.789 386.755 490.772 394.1 486.615 401.153L373.203 355.841C366.655 353.147 361.079 348.619 357.151 342.782C353.222 336.945 351.501 329.012 351.463 321.978L351.126 261.736C351.126 254.626 353.072 246.619 357.038 240.707C361.005 234.795 366.655 230.193 373.278 227.461L486.054 182.448ZM74.835 237.751C79.8115 218.855 87.6692 199.024 97.51 182.149L210.324 227.162C216.947 229.894 222.597 234.496 226.563 240.408C230.529 246.32 232.475 254.327 232.475 261.436L232.138 321.679C232.101 328.713 230.38 336.646 226.451 342.483C222.522 348.32 216.947 352.848 210.399 355.542L98.1461 401.415C93.1696 393.034 88.6795 383.68 84.9377 374.699C81.1586 365.682 77.3794 354.644 74.835 345.214L210.174 291.258L74.835 237.751Z"/>
</mask>
<path fill-rule="evenodd" clip-rule="evenodd" d="M0 291.857C0 51.517 51.5063 0 291.857 0C532.207 0 583.713 51.517 583.713 291.857C583.713 532.196 532.207 583.713 291.857 583.713C51.5063 583.713 0 532.196 0 291.857ZM401.116 486.053C384.241 495.894 364.409 503.752 345.514 508.728L292.006 373.389L238.05 508.728C228.621 506.184 217.583 502.405 208.565 498.626C207.145 498.034 205.728 497.452 204.318 496.873L204.312 496.87L204.312 496.87C196.809 493.788 189.464 490.771 182.411 486.615L227.723 373.202C230.417 366.654 234.945 361.079 240.782 357.15C246.619 353.221 254.552 351.5 261.586 351.463L321.828 351.126C328.938 351.126 336.945 353.072 342.857 357.038C348.769 361.004 353.371 366.654 356.103 373.277L401.116 486.053ZM345.813 74.835C364.708 79.8116 384.54 87.6692 401.415 97.51V97.5475L356.402 210.324C353.67 216.947 349.068 222.597 343.156 226.563C337.244 230.529 329.237 232.475 322.127 232.475L261.885 232.138C254.851 232.101 246.918 230.38 241.081 226.451C235.244 222.522 230.716 216.947 228.022 210.399L182.148 98.1461C190.53 93.1696 199.884 88.6795 208.864 84.9378C217.882 81.1586 228.92 77.3794 238.349 74.835L292.306 210.174L345.813 74.835ZM486.054 182.448C495.895 199.323 503.753 219.154 508.729 238.05L373.39 291.557L508.729 345.513C506.185 354.943 502.405 365.981 498.626 374.998C498.034 376.421 497.451 377.839 496.871 379.252L496.871 379.252C493.789 386.755 490.772 394.1 486.615 401.153L373.203 355.841C366.655 353.147 361.079 348.619 357.151 342.782C353.222 336.945 351.501 329.012 351.463 321.978L351.126 261.736C351.126 254.626 353.072 246.619 357.038 240.707C361.005 234.795 366.655 230.193 373.278 227.461L486.054 182.448ZM74.835 237.751C79.8115 218.855 87.6692 199.024 97.51 182.149L210.324 227.162C216.947 229.894 222.597 234.496 226.563 240.408C230.529 246.32 232.475 254.327 232.475 261.436L232.138 321.679C232.101 328.713 230.38 336.646 226.451 342.483C222.522 348.32 216.947 352.848 210.399 355.542L98.1461 401.415C93.1696 393.034 88.6795 383.68 84.9377 374.699C81.1586 365.682 77.3794 354.644 74.835 345.214L210.174 291.258L74.835 237.751Z" fill="black"/>
<path d="M345.514 508.728L344.584 509.096L344.91 509.921L345.768 509.695L345.514 508.728ZM401.116 486.053L401.62 486.917L402.364 486.483L402.045 485.683L401.116 486.053ZM292.006 373.389L292.936 373.022L292.01 370.679L291.078 373.019L292.006 373.389ZM238.05 508.728L237.79 509.694L238.65 509.926L238.979 509.099L238.05 508.728ZM208.565 498.626L208.952 497.703L208.95 497.703L208.565 498.626ZM204.318 496.873L203.934 497.796L203.938 497.798L204.318 496.873ZM204.312 496.87L204.696 495.947L204.663 495.933L204.628 495.922L204.312 496.87ZM204.312 496.87L203.932 497.795L203.963 497.808L203.995 497.819L204.312 496.87ZM182.411 486.615L181.482 486.244L181.164 487.041L181.903 487.476L182.411 486.615ZM227.723 373.202L226.798 372.822L226.795 372.831L227.723 373.202ZM240.782 357.15L241.34 357.98L241.34 357.98L240.782 357.15ZM261.586 351.463L261.591 352.463L261.592 352.463L261.586 351.463ZM321.828 351.126V350.126L321.823 350.126L321.828 351.126ZM342.857 357.038L342.3 357.868L342.3 357.868L342.857 357.038ZM356.103 373.277L357.032 372.906L357.027 372.896L356.103 373.277ZM401.415 97.51H402.415V96.9356L401.919 96.6462L401.415 97.51ZM345.813 74.835L346.067 73.868L345.209 73.642L344.883 74.4674L345.813 74.835ZM401.415 97.5475L402.344 97.9182L402.415 97.7397V97.5475H401.415ZM356.402 210.324L357.326 210.705L357.331 210.695L356.402 210.324ZM343.156 226.563L343.713 227.394L343.713 227.394L343.156 226.563ZM322.127 232.475L322.122 233.475H322.127V232.475ZM261.885 232.138L261.891 231.138L261.89 231.138L261.885 232.138ZM241.081 226.451L240.523 227.28L240.523 227.28L241.081 226.451ZM228.022 210.399L227.097 210.777L227.097 210.779L228.022 210.399ZM182.148 98.1461L181.638 97.2863L180.897 97.7264L181.223 98.5244L182.148 98.1461ZM208.864 84.9378L209.249 85.8608L209.251 85.86L208.864 84.9378ZM238.349 74.835L239.278 74.4647L238.949 73.6376L238.089 73.8696L238.349 74.835ZM292.306 210.174L291.377 210.545L292.309 212.884L293.236 210.542L292.306 210.174ZM508.729 238.05L509.097 238.98L509.922 238.654L509.696 237.796L508.729 238.05ZM486.054 182.448L486.918 181.944L486.484 181.2L485.683 181.519L486.054 182.448ZM373.39 291.557L373.022 290.627L370.68 291.553L373.02 292.486L373.39 291.557ZM508.729 345.513L509.695 345.774L509.926 344.914L509.099 344.585L508.729 345.513ZM498.626 374.998L497.704 374.612L497.703 374.614L498.626 374.998ZM496.871 379.252L495.946 378.872L495.933 378.903L495.922 378.935L496.871 379.252ZM496.871 379.252L497.796 379.632L497.809 379.601L497.819 379.568L496.871 379.252ZM486.615 401.153L486.244 402.082L487.041 402.4L487.477 401.661L486.615 401.153ZM373.203 355.841L372.822 356.766L372.832 356.769L373.203 355.841ZM357.151 342.782L357.98 342.224L357.98 342.224L357.151 342.782ZM351.463 321.978L352.463 321.973L352.463 321.972L351.463 321.978ZM351.126 261.736H350.126L350.126 261.741L351.126 261.736ZM373.278 227.461L372.907 226.532L372.896 226.537L373.278 227.461ZM97.51 182.149L97.8806 181.22L97.0803 180.901L96.6462 181.645L97.51 182.149ZM74.835 237.751L73.868 237.497L73.6419 238.355L74.4673 238.681L74.835 237.751ZM210.324 227.162L210.705 226.238L210.694 226.233L210.324 227.162ZM226.563 240.408L225.733 240.965L225.733 240.965L226.563 240.408ZM232.475 261.436L233.475 261.442V261.436H232.475ZM232.138 321.679L231.138 321.673L231.138 321.673L232.138 321.679ZM226.451 342.483L225.621 341.924L225.621 341.924L226.451 342.483ZM210.399 355.542L210.777 356.467L210.779 356.466L210.399 355.542ZM98.1461 401.415L97.2863 401.926L97.7264 402.667L98.5244 402.341L98.1461 401.415ZM84.9377 374.699L85.8608 374.315L85.86 374.313L84.9377 374.699ZM74.835 345.214L74.4647 344.285L73.6376 344.615L73.8695 345.475L74.835 345.214ZM210.174 291.258L210.545 292.187L212.884 291.254L210.542 290.328L210.174 291.258ZM291.857 -1C231.746 -1 183.375 2.21973 144.639 10.8287C105.892 19.4401 76.7258 33.4572 55.0898 55.0939C33.4538 76.7305 19.4378 105.897 10.8271 144.644C2.21906 183.379 -1 231.749 -1 291.857H1C1 231.795 4.21922 183.598 12.7795 145.078C21.3373 106.569 35.2197 77.7931 56.5041 56.5081C77.7884 35.223 106.564 21.3396 145.073 12.781C183.594 4.21989 231.792 1 291.857 1V-1ZM584.713 291.857C584.713 231.749 581.494 183.379 572.886 144.644C564.276 105.897 550.26 76.7305 528.624 55.0939C506.988 33.4572 477.821 19.4401 439.074 10.8287C400.339 2.21973 351.967 -1 291.857 -1V1C351.921 1 400.12 4.21989 438.64 12.781C477.149 21.3396 505.925 35.223 527.209 56.5081C548.494 77.7931 562.376 106.569 570.934 145.078C579.494 183.598 582.713 231.795 582.713 291.857H584.713ZM291.857 584.713C351.967 584.713 400.339 581.494 439.074 572.885C477.821 564.273 506.988 550.256 528.624 528.62C550.26 506.983 564.276 477.816 572.886 439.07C581.494 400.335 584.713 351.964 584.713 291.857H582.713C582.713 351.919 579.494 400.116 570.934 438.636C562.376 477.144 548.494 505.92 527.209 527.205C505.925 548.49 477.149 562.374 438.64 570.932C400.12 579.493 351.921 582.713 291.857 582.713V584.713ZM-1 291.857C-1 351.964 2.21906 400.335 10.8271 439.07C19.4378 477.816 33.4538 506.983 55.0898 528.62C76.7258 550.256 105.892 564.273 144.639 572.885C183.375 581.494 231.746 584.713 291.857 584.713V582.713C231.792 582.713 183.594 579.493 145.073 570.932C106.564 562.374 77.7884 548.49 56.5041 527.205C35.2197 505.92 21.3373 477.144 12.7795 438.636C4.21922 400.116 1 351.919 1 291.857H-1ZM345.768 509.695C364.74 504.699 384.657 496.809 401.62 486.917L400.612 485.19C383.824 494.98 364.078 502.805 345.259 507.761L345.768 509.695ZM291.077 373.757L344.584 509.096L346.443 508.361L292.936 373.022L291.077 373.757ZM238.979 509.099L292.935 373.76L291.078 373.019L237.121 508.358L238.979 509.099ZM208.179 499.548C217.238 503.344 228.318 507.138 237.79 509.694L238.311 507.763C228.924 505.23 217.928 501.465 208.952 497.703L208.179 499.548ZM203.938 497.798C205.349 498.377 206.763 498.958 208.181 499.549L208.95 497.703C207.526 497.109 206.108 496.527 204.698 495.948L203.938 497.798ZM203.928 497.794L203.934 497.796L204.702 495.949L204.696 495.947L203.928 497.794ZM203.995 497.819L203.996 497.819L204.628 495.922L204.628 495.921L203.995 497.819ZM181.903 487.476C189.028 491.675 196.439 494.717 203.932 497.795L204.692 495.945C197.179 492.859 189.9 489.868 182.918 485.753L181.903 487.476ZM226.795 372.831L181.482 486.244L183.339 486.986L228.652 373.573L226.795 372.831ZM240.224 356.32C234.221 360.361 229.567 366.093 226.798 372.822L228.648 373.583C231.268 367.215 235.669 361.797 241.34 357.98L240.224 356.32ZM261.581 350.463C254.419 350.501 246.274 352.248 240.223 356.32L241.34 357.98C246.964 354.194 254.684 352.499 261.591 352.463L261.581 350.463ZM321.823 350.126L261.58 350.463L261.592 352.463L321.834 352.126L321.823 350.126ZM343.414 356.207C337.303 352.108 329.09 350.126 321.828 350.126V352.126C328.785 352.126 336.587 354.035 342.3 357.868L343.414 356.207ZM357.027 372.896C354.221 366.092 349.492 360.285 343.414 356.207L342.3 357.868C348.046 361.723 352.521 367.216 355.178 373.658L357.027 372.896ZM402.045 485.683L357.031 372.906L355.174 373.648L400.187 486.424L402.045 485.683ZM401.919 96.6462C384.956 86.7546 365.04 78.8647 346.067 73.868L345.558 75.8021C364.377 80.7585 384.123 88.5839 400.911 98.3739L401.919 96.6462ZM402.415 97.5475V97.51H400.415V97.5475H402.415ZM357.331 210.695L402.344 97.9182L400.486 97.1768L355.473 209.953L357.331 210.695ZM343.713 227.394C349.791 223.316 354.52 217.509 357.326 210.705L355.477 209.943C352.82 216.385 348.345 221.878 342.599 225.733L343.713 227.394ZM322.127 233.475C329.389 233.475 337.602 231.493 343.713 227.394L342.599 225.733C336.886 229.565 329.084 231.475 322.127 231.475V233.475ZM261.88 233.138L322.122 233.475L322.133 231.475L261.891 231.138L261.88 233.138ZM240.523 227.28C246.573 231.353 254.718 233.1 261.88 233.138L261.89 231.138C254.983 231.102 247.263 229.407 241.639 225.621L240.523 227.28ZM227.097 210.779C229.866 217.508 234.52 223.24 240.523 227.28L241.639 225.621C235.968 221.804 231.567 216.386 228.947 210.018L227.097 210.779ZM181.223 98.5244L227.097 210.777L228.948 210.02L183.074 97.7679L181.223 98.5244ZM208.48 84.0147C199.468 87.7695 190.07 92.2799 181.638 97.2863L182.659 99.006C190.99 94.0593 200.3 89.5895 209.249 85.8608L208.48 84.0147ZM238.089 73.8696C228.617 76.4255 217.537 80.219 208.478 84.0155L209.251 85.86C218.227 82.0981 229.223 78.3334 238.61 75.8005L238.089 73.8696ZM293.234 209.804L239.278 74.4647L237.421 75.2054L291.377 210.545L293.234 209.804ZM344.883 74.4674L291.376 209.807L293.236 210.542L346.743 75.2027L344.883 74.4674ZM509.696 237.796C504.699 218.823 496.81 198.907 486.918 181.944L485.19 182.952C494.98 199.74 502.806 219.486 507.762 238.305L509.696 237.796ZM373.758 292.487L509.097 238.98L508.361 237.12L373.022 290.627L373.758 292.487ZM509.099 344.585L373.76 290.628L373.02 292.486L508.359 346.442L509.099 344.585ZM499.549 375.385C503.345 366.326 507.139 355.246 509.695 345.774L507.764 345.253C505.231 354.639 501.466 365.636 497.704 374.612L499.549 375.385ZM497.796 379.632C498.376 378.219 498.958 376.803 499.549 375.383L497.703 374.614C497.109 376.039 496.526 377.46 495.946 378.872L497.796 379.632ZM497.819 379.568L497.82 379.568L495.922 378.935L495.922 378.936L497.819 379.568ZM487.477 401.661C491.675 394.536 494.718 387.125 497.796 379.632L495.946 378.872C492.86 386.385 489.868 393.664 485.754 400.646L487.477 401.661ZM372.832 356.769L486.244 402.082L486.986 400.225L373.574 354.912L372.832 356.769ZM356.321 343.34C360.361 349.343 366.094 353.997 372.822 356.765L373.583 354.916C367.216 352.296 361.798 347.895 357.98 342.224L356.321 343.34ZM350.463 321.983C350.501 329.145 352.249 337.29 356.321 343.34L357.98 342.224C354.195 336.6 352.5 328.88 352.463 321.973L350.463 321.983ZM350.126 261.741L350.463 321.983L352.463 321.972L352.126 261.73L350.126 261.741ZM356.208 240.15C352.108 246.261 350.126 254.474 350.126 261.736H352.126C352.126 254.779 354.036 246.977 357.869 241.264L356.208 240.15ZM372.896 226.537C366.093 229.343 360.285 234.072 356.208 240.15L357.869 241.264C361.724 235.518 367.217 231.043 373.659 228.386L372.896 226.537ZM485.683 181.519L372.907 226.532L373.648 228.39L486.425 183.377L485.683 181.519ZM96.6462 181.645C86.7545 198.607 78.8646 218.524 73.868 237.497L75.802 238.006C80.7584 219.186 88.5839 199.441 98.3739 182.652L96.6462 181.645ZM210.694 226.233L97.8806 181.22L97.1394 183.078L209.953 228.091L210.694 226.233ZM227.393 239.851C223.316 233.773 217.509 229.044 210.705 226.238L209.943 228.086C216.385 230.743 221.878 235.219 225.733 240.965L227.393 239.851ZM233.475 261.436C233.475 254.174 231.493 245.962 227.393 239.851L225.733 240.965C229.565 246.678 231.475 254.48 231.475 261.436H233.475ZM233.138 321.684L233.475 261.442L231.475 261.431L231.138 321.673L233.138 321.684ZM227.28 343.041C231.353 336.991 233.1 328.846 233.138 321.684L231.138 321.673C231.102 328.581 229.407 336.301 225.621 341.924L227.28 343.041ZM210.779 356.466C217.508 353.698 223.24 349.044 227.28 343.041L225.621 341.924C221.804 347.596 216.386 351.997 210.018 354.617L210.779 356.466ZM98.5244 402.341L210.777 356.467L210.02 354.616L97.7678 400.49L98.5244 402.341ZM84.0147 375.084C87.7695 384.096 92.2799 393.494 97.2863 401.926L99.006 400.905C94.0593 392.574 89.5895 383.264 85.8608 374.315L84.0147 375.084ZM73.8695 345.475C76.4254 354.947 80.219 366.027 84.0155 375.086L85.86 374.313C82.0981 365.336 78.3333 354.34 75.8005 344.954L73.8695 345.475ZM209.804 290.329L74.4647 344.285L75.2053 346.143L210.545 292.187L209.804 290.329ZM74.4673 238.681L209.807 292.188L210.542 290.328L75.2027 236.821L74.4673 238.681Z" fill="black" mask="url(#path-1-inside-1_231_44)"/>
</svg>
