<svg width="108" height="36" viewBox="0 0 108 36" fill="none" xmlns="http://www.w3.org/2000/svg">
<path d="M44.5864 24.9438C43.9149 24.9438 43.3241 24.8746 42.8141 24.7384C42.3041 24.6023 41.8818 24.4038 41.5449 24.1407C41.208 23.8777 40.9541 23.5684 40.781 23.2084C40.6056 22.8484 40.5203 22.4377 40.5203 21.9784V21.8007C40.5203 21.7453 40.5272 21.6992 40.5387 21.66H42.161C42.1495 21.7107 42.1426 21.7523 42.1426 21.7892V21.9023C42.1541 22.3384 42.2695 22.68 42.4864 22.9269C42.7033 23.1761 43.0056 23.3492 43.391 23.4484C43.7764 23.5477 44.2056 23.5984 44.6787 23.5984C45.0895 23.5984 45.468 23.5453 45.8164 23.4392C46.1649 23.333 46.4418 23.1715 46.6472 22.9546C46.8526 22.7377 46.9541 22.4607 46.9541 22.1238C46.9541 21.713 46.8203 21.3992 46.5526 21.1823C46.2849 20.9653 45.9341 20.7946 45.498 20.67C45.0618 20.5453 44.6095 20.4161 44.1364 20.2777C43.7395 20.1646 43.3403 20.0423 42.9433 19.9038C42.5464 19.7677 42.1887 19.5992 41.8703 19.4007C41.5541 19.2023 41.298 18.9438 41.1064 18.6277C40.9126 18.3115 40.818 17.91 40.818 17.4253C40.818 16.9892 40.908 16.6038 41.088 16.2692C41.268 15.9346 41.5264 15.6484 41.861 15.4107C42.1956 15.1753 42.6041 14.9977 43.0818 14.88C43.5595 14.7623 44.0926 14.7023 44.6764 14.7023C45.2972 14.7023 45.8418 14.7715 46.308 14.9077C46.7741 15.0438 47.1618 15.2377 47.4733 15.4869C47.7849 15.7361 48.0133 16.0177 48.1633 16.3361C48.3133 16.6523 48.3872 16.9915 48.3872 17.3515V17.5661C48.3872 17.6353 48.3803 17.6884 48.3687 17.7253H46.7649V17.52C46.7649 17.2707 46.7003 17.033 46.5687 16.8023C46.4372 16.5715 46.2133 16.3869 45.8972 16.2438C45.581 16.1007 45.1426 16.0292 44.5818 16.0292C44.2218 16.0292 43.9103 16.0569 43.6495 16.1123C43.3887 16.1677 43.1718 16.2553 42.9964 16.373C42.8233 16.4907 42.6918 16.6269 42.6041 16.7838C42.5164 16.9384 42.4726 17.1161 42.4726 17.3146C42.4726 17.6377 42.5787 17.8869 42.7887 18.06C43.001 18.233 43.2826 18.3761 43.638 18.4892C43.9933 18.6 44.3741 18.7246 44.7849 18.863C45.221 18.9877 45.6641 19.1146 46.1187 19.2461C46.5733 19.3753 46.9887 19.5415 47.3672 19.74C47.7456 19.9384 48.0503 20.2084 48.281 20.5523C48.5118 20.8938 48.6272 21.3438 48.6272 21.9046C48.6272 22.4261 48.528 22.8807 48.3295 23.2661C48.131 23.6515 47.8472 23.9677 47.4803 24.2169C47.1133 24.4661 46.6841 24.6484 46.1926 24.7661C45.701 24.8838 45.1633 24.9438 44.5795 24.9438H44.5864Z" fill="#141C25"/>
<path d="M50.6649 12.9021V11.3975C50.6649 11.3075 50.7365 11.236 50.8265 11.236H52.1441C52.2341 11.236 52.3057 11.3075 52.3057 11.3975V12.9021C52.3057 12.9921 52.2341 13.0637 52.1441 13.0637H50.8265C50.7365 13.0637 50.6649 12.9921 50.6649 12.9021ZM50.6649 24.5583V15.0713C50.6649 14.9813 50.7365 14.9098 50.8265 14.9098H52.1441C52.2341 14.9098 52.3057 14.9813 52.3057 15.0713V24.5583C52.3057 24.6483 52.2341 24.7198 52.1441 24.7198H50.8265C50.7365 24.7198 50.6649 24.6483 50.6649 24.5583Z" fill="#141C25"/>
<path d="M58.1995 24.9436C57.3918 24.9436 56.6972 24.7636 56.1203 24.4036C55.5434 24.0436 55.0957 23.4805 54.7772 22.7166C54.461 21.9528 54.3018 20.9605 54.3018 19.742C54.3018 18.5236 54.4634 17.6351 54.7864 16.8897C55.1095 16.1443 55.5572 15.5905 56.1295 15.2305C56.7018 14.8705 57.3664 14.6905 58.1257 14.6905C58.5618 14.6905 58.9657 14.7412 59.3372 14.8405C59.711 14.9397 60.0434 15.0966 60.3341 15.3066C60.6249 15.5189 60.8834 15.7982 61.1072 16.1466H61.2203V11.402C61.2203 11.312 61.2918 11.2405 61.3818 11.2405H62.6995C62.7895 11.2405 62.861 11.312 62.861 11.402V24.5628C62.861 24.6528 62.7895 24.7243 62.6995 24.7243H61.6818C61.5987 24.7243 61.5295 24.662 61.5226 24.5812L61.3887 23.3259H61.2572C60.9226 23.8728 60.4864 24.2812 59.951 24.5466C59.4157 24.8143 58.8318 24.9482 58.1972 24.9482L58.1995 24.9436ZM58.5918 23.5082C59.2126 23.5082 59.718 23.372 60.1034 23.0974C60.4887 22.8251 60.7726 22.4259 60.9526 21.9043C61.1326 21.3828 61.2226 20.7366 61.2226 19.9636V19.6659C61.2226 18.9943 61.1534 18.4289 61.0172 17.9697C60.881 17.5105 60.6941 17.1436 60.4587 16.8689C60.2234 16.5966 59.9487 16.4028 59.6372 16.2897C59.3257 16.1789 58.9957 16.1212 58.6495 16.1212C58.0403 16.1212 57.5418 16.2436 57.1564 16.4859C56.771 16.7282 56.4849 17.1066 56.298 17.6236C56.111 18.1405 56.0187 18.8074 56.0187 19.6289V20.0212C56.0187 20.8659 56.118 21.5466 56.3164 22.0636C56.5149 22.5805 56.8034 22.9497 57.1841 23.1736C57.5626 23.3974 58.0334 23.5082 58.5918 23.5082Z" fill="#141C25"/>
<path d="M69.0596 24.9437C68.0903 24.9437 67.2711 24.7591 66.6065 24.3945C65.9419 24.0276 65.4388 23.4645 65.0949 22.7076C64.7534 21.9507 64.5826 20.986 64.5826 19.816C64.5826 18.646 64.7534 17.6676 65.0949 16.9153C65.4365 16.163 65.9442 15.6045 66.6157 15.2376C67.2873 14.8707 68.1273 14.6884 69.1334 14.6884C70.0542 14.6884 70.8249 14.866 71.4457 15.2191C72.0665 15.5745 72.5373 16.103 72.8534 16.8045C73.1696 17.506 73.3288 18.3876 73.3288 19.4445V20.0676C73.3288 20.1576 73.2573 20.2291 73.1673 20.2291H66.4473C66.3549 20.2291 66.2811 20.3076 66.2857 20.3999C66.3203 21.106 66.4334 21.6922 66.6249 22.1607C66.8303 22.6637 67.1373 23.0307 67.548 23.2614C67.9588 23.4922 68.4734 23.6053 69.0965 23.6053C69.5188 23.6053 69.888 23.5522 70.2065 23.446C70.5226 23.3399 70.7903 23.1876 71.0096 22.9891C71.2265 22.7907 71.3926 22.553 71.5034 22.2807C71.598 22.0499 71.6557 21.8007 71.6811 21.5353C71.688 21.4522 71.7549 21.3853 71.8403 21.3853H73.1257C73.218 21.3853 73.2942 21.4637 73.2873 21.556C73.2596 22.013 73.1626 22.4376 72.9965 22.8299C72.8096 23.2707 72.5373 23.6468 72.1749 23.9584C71.8149 24.2699 71.3719 24.5122 70.8503 24.6853C70.3288 24.8584 69.7311 24.946 69.0596 24.946V24.9437ZM66.4957 18.9945H71.4688C71.5588 18.9945 71.6326 18.9184 71.6303 18.8284C71.6188 18.353 71.5565 17.9491 71.4457 17.6145C71.3211 17.2407 71.1434 16.936 70.915 16.7007C70.6842 16.4653 70.4165 16.2945 70.1142 16.1884C69.8096 16.0822 69.4634 16.0291 69.078 16.0291C68.5057 16.0291 68.0211 16.1353 67.6242 16.3453C67.2273 16.5576 66.9226 16.8807 66.7103 17.3145C66.5165 17.7114 66.3919 18.2122 66.3342 18.8145C66.3249 18.9091 66.4011 18.9922 66.4957 18.9922V18.9945Z" fill="#141C25"/>
<path d="M78.4909 24.9437C77.8702 24.9437 77.3648 24.8306 76.9794 24.6091C76.594 24.3852 76.3148 24.0829 76.1394 23.7045C75.964 23.326 75.8786 22.906 75.8786 22.4445V17.0675C75.8786 16.9775 75.8071 16.906 75.7171 16.906H74.8263C74.7363 16.906 74.6648 16.8345 74.6648 16.7445V15.0714C74.6648 14.9814 74.7363 14.9098 74.8263 14.9098H75.8348C75.9133 14.9098 75.9802 14.8545 75.994 14.776L76.9863 12.2468C77.0002 12.1706 77.0671 12.1129 77.1456 12.1129H78.3086C78.3986 12.1129 78.4702 12.1845 78.4702 12.2745V14.7506C78.4702 14.8406 78.5417 14.9121 78.6317 14.9121H80.0994C80.1894 14.9121 80.2609 14.9837 80.2609 15.0737V16.7468C80.2609 16.8368 80.1894 16.9083 80.0994 16.9083H78.6317C78.5417 16.9083 78.4702 16.9798 78.4702 17.0698V22.0175C78.4702 22.3152 78.5394 22.5437 78.6756 22.6983C78.8117 22.8529 79.0356 22.9314 79.3471 22.9314H80.0994C80.1894 22.9314 80.2609 23.0029 80.2609 23.0929V24.5283C80.2609 24.5998 80.2171 24.6621 80.1479 24.6829C80.0256 24.7198 79.8894 24.7545 79.7371 24.7868C79.5386 24.8306 79.3263 24.8675 79.1025 24.8998C78.8786 24.9298 78.6733 24.946 78.4863 24.946L78.4909 24.9437Z" fill="#141C25"/>
<path d="M86.4524 24.9437C85.384 24.9437 84.4748 24.7591 83.7294 24.3945C82.984 24.0276 82.4163 23.4622 82.0332 22.6984C81.6478 21.9345 81.454 20.9722 81.454 19.816C81.454 18.6599 81.6478 17.6676 82.0332 16.9153C82.4186 16.163 82.984 15.6045 83.7294 15.2376C84.4748 14.8707 85.3817 14.6884 86.4524 14.6884C87.5232 14.6884 88.4624 14.873 89.2032 15.2376C89.944 15.6045 90.5048 16.163 90.8901 16.9153C91.2755 17.6676 91.4694 18.6345 91.4694 19.816C91.4694 20.9976 91.2755 21.9322 90.8901 22.6984C90.5048 23.4622 89.9417 24.0276 89.2032 24.3945C88.4624 24.7614 87.5463 24.9437 86.4524 24.9437ZM86.4524 22.9291C87.0247 22.9291 87.4817 22.823 87.8232 22.613C88.1647 22.4007 88.4163 22.0776 88.5778 21.6437C88.7394 21.2099 88.8201 20.6745 88.8201 20.0399V19.5922C88.8201 18.9576 88.7394 18.4245 88.5778 17.9884C88.4163 17.5522 88.1647 17.2268 87.8232 17.0099C87.4817 16.793 87.0247 16.6845 86.4524 16.6845C85.8801 16.6845 85.4417 16.793 85.1001 17.0099C84.7586 17.2268 84.5071 17.5545 84.3455 17.9884C84.184 18.4245 84.1032 18.9576 84.1032 19.5922V20.0399C84.1032 20.6745 84.184 21.2076 84.3455 21.6437C84.5071 22.0799 84.7586 22.403 85.1001 22.613C85.4417 22.8253 85.894 22.9291 86.4524 22.9291Z" fill="#141C25"/>
<path d="M97.8849 24.9437C96.8165 24.9437 95.9072 24.7591 95.1619 24.3945C94.4165 24.0276 93.8488 23.4622 93.4657 22.6984C93.0803 21.9345 92.8865 20.9722 92.8865 19.816C92.8865 18.6599 93.0803 17.6676 93.4657 16.9153C93.8511 16.163 94.4165 15.6045 95.1619 15.2376C95.9072 14.8707 96.8142 14.6884 97.8849 14.6884C98.9557 14.6884 99.8949 14.873 100.636 15.2376C101.376 15.6045 101.937 16.163 102.323 16.9153C102.708 17.6676 102.902 18.6345 102.902 19.816C102.902 20.9976 102.708 21.9322 102.323 22.6984C101.937 23.4622 101.374 24.0276 100.636 24.3945C99.8949 24.7614 98.9788 24.9437 97.8849 24.9437ZM97.8849 22.9291C98.4572 22.9291 98.9142 22.823 99.2557 22.613C99.5972 22.4007 99.8488 22.0776 100.01 21.6437C100.172 21.2099 100.253 20.6745 100.253 20.0399V19.5922C100.253 18.9576 100.172 18.4245 100.01 17.9884C99.8488 17.5522 99.5972 17.2268 99.2557 17.0099C98.9142 16.793 98.4572 16.6845 97.8849 16.6845C97.3126 16.6845 96.8742 16.793 96.5326 17.0099C96.1911 17.2268 95.9396 17.5545 95.778 17.9884C95.6165 18.4245 95.5357 18.9576 95.5357 19.5922V20.0399C95.5357 20.6745 95.6165 21.2076 95.778 21.6437C95.9396 22.0799 96.1911 22.403 96.5326 22.613C96.8742 22.8253 97.3265 22.9291 97.8849 22.9291Z" fill="#141C25"/>
<path d="M104.803 24.5583V11.3975C104.803 11.3075 104.875 11.236 104.965 11.236H107.236C107.326 11.236 107.397 11.3075 107.397 11.3975V24.5583C107.397 24.6483 107.326 24.7198 107.236 24.7198H104.965C104.875 24.7198 104.803 24.6483 104.803 24.5583Z" fill="#141C25"/>
<path d="M0 18C0 3.17727 3.1766 0 18 0C32.8234 0 36 3.17727 36 18C36 32.8227 32.8234 36 18 36C3.1766 36 0 32.8227 0 18Z" fill="#141C25"/>
<path d="M24.7609 29.9769C23.7202 30.5839 22.4971 31.0685 21.3317 31.3754L18.0317 23.0285L14.704 31.3754C14.1225 31.2185 13.4417 30.9854 12.8855 30.7523C12.3317 30.5216 11.7894 30.3162 11.2725 30.0116L14.0671 23.0169C14.2332 22.6131 14.5125 22.2692 14.8725 22.0269C15.2325 21.7846 15.7217 21.6785 16.1555 21.6762L19.8709 21.6554C20.3094 21.6554 20.8032 21.7754 21.1678 22.02C21.5325 22.2646 21.8163 22.6131 21.9848 23.0216L24.7609 29.9769Z" fill="white"/>
<path d="M24.7794 6.01382C23.7386 5.40689 22.5155 4.92228 21.3501 4.61536L18.0501 12.9623L14.7224 4.61536C14.1409 4.77228 13.4601 5.00536 12.904 5.23843C12.3501 5.4692 11.7732 5.74613 11.2563 6.05305L14.0855 12.9761C14.2517 13.38 14.5309 13.7238 14.8909 13.9661C15.2509 14.2084 15.7401 14.3146 16.174 14.3169L19.8894 14.3377C20.3278 14.3377 20.8217 14.2177 21.1863 13.973C21.5509 13.7284 21.8348 13.38 22.0032 12.9715L24.7794 6.01613V6.01382Z" fill="white"/>
<path d="M29.9996 11.2522C30.6066 12.293 31.0912 13.516 31.3981 14.6814L23.0512 17.9814L31.3981 21.3091C31.2412 21.8907 31.0081 22.5714 30.775 23.1276C30.5443 23.6814 30.3389 24.2237 30.0343 24.7407L23.0396 21.946C22.6358 21.7799 22.2919 21.5007 22.0496 21.1407C21.8073 20.7807 21.7012 20.2914 21.6989 19.8576L21.6781 16.1422C21.6781 15.7037 21.7981 15.2099 22.0427 14.8453C22.2873 14.4807 22.6358 14.1968 23.0443 14.0284L29.9996 11.2522Z" fill="white"/>
<path d="M6.03628 11.2339C5.42936 12.2747 4.94474 13.4977 4.63782 14.6631L12.9847 17.9631L4.63782 21.2908C4.79474 21.8724 5.02782 22.5531 5.26089 23.1093C5.49166 23.6631 5.76859 24.24 6.07551 24.757L12.9986 21.9277C13.4024 21.7616 13.7463 21.4823 13.9886 21.1223C14.2309 20.7623 14.3371 20.2731 14.3394 19.8393L14.3601 16.1239C14.3601 15.6854 14.2401 15.1916 13.9955 14.827C13.7509 14.4623 13.4024 14.1785 12.994 14.01L6.03628 11.2339Z" fill="white"/>
</svg>
