<svg width="108" height="36" viewBox="0 0 108 36" fill="none" xmlns="http://www.w3.org/2000/svg">
<path d="M44.5864 24.9439C43.9149 24.9439 43.3241 24.8746 42.8141 24.7385C42.3041 24.6023 41.8818 24.4039 41.5449 24.1408C41.208 23.8777 40.9541 23.5685 40.781 23.2085C40.6056 22.8485 40.5203 22.4377 40.5203 21.9785V21.8008C40.5203 21.7454 40.5272 21.6993 40.5387 21.66H42.161C42.1495 21.7108 42.1426 21.7523 42.1426 21.7893V21.9023C42.1541 22.3385 42.2695 22.68 42.4864 22.9269C42.7033 23.1762 43.0056 23.3493 43.391 23.4485C43.7764 23.5477 44.2056 23.5985 44.6787 23.5985C45.0895 23.5985 45.468 23.5454 45.8164 23.4393C46.1649 23.3331 46.4418 23.1716 46.6472 22.9546C46.8526 22.7377 46.9541 22.4608 46.9541 22.1239C46.9541 21.7131 46.8203 21.3993 46.5526 21.1823C46.2849 20.9654 45.9341 20.7946 45.498 20.67C45.0618 20.5454 44.6095 20.4162 44.1364 20.2777C43.7395 20.1646 43.3403 20.0423 42.9433 19.9039C42.5464 19.7677 42.1887 19.5993 41.8703 19.4008C41.5541 19.2023 41.298 18.9439 41.1064 18.6277C40.9126 18.3116 40.818 17.91 40.818 17.4254C40.818 16.9893 40.908 16.6039 41.088 16.2693C41.268 15.9346 41.5264 15.6485 41.861 15.4108C42.1956 15.1754 42.6041 14.9977 43.0818 14.88C43.5595 14.7623 44.0926 14.7023 44.6764 14.7023C45.2972 14.7023 45.8418 14.7716 46.308 14.9077C46.7741 15.0439 47.1618 15.2377 47.4733 15.4869C47.7849 15.7362 48.0133 16.0177 48.1633 16.3362C48.3133 16.6523 48.3872 16.9916 48.3872 17.3516V17.5662C48.3872 17.6354 48.3803 17.6885 48.3687 17.7254H46.7649V17.52C46.7649 17.2708 46.7003 17.0331 46.5687 16.8023C46.4372 16.5716 46.2133 16.3869 45.8972 16.2439C45.581 16.1008 45.1426 16.0293 44.5818 16.0293C44.2218 16.0293 43.9103 16.0569 43.6495 16.1123C43.3887 16.1677 43.1718 16.2554 42.9964 16.3731C42.8233 16.4908 42.6918 16.6269 42.6041 16.7839C42.5164 16.9385 42.4726 17.1162 42.4726 17.3146C42.4726 17.6377 42.5787 17.8869 42.7887 18.06C43.001 18.2331 43.2826 18.3762 43.638 18.4893C43.9933 18.6 44.3741 18.7246 44.7849 18.8631C45.221 18.9877 45.6641 19.1146 46.1187 19.2462C46.5733 19.3754 46.9887 19.5416 47.3672 19.74C47.7456 19.9385 48.0503 20.2085 48.281 20.5523C48.5118 20.8939 48.6272 21.3439 48.6272 21.9046C48.6272 22.4262 48.528 22.8808 48.3295 23.2662C48.131 23.6516 47.8472 23.9677 47.4803 24.2169C47.1133 24.4662 46.6841 24.6485 46.1926 24.7662C45.701 24.8839 45.1633 24.9439 44.5795 24.9439H44.5864Z" fill="white"/>
<path d="M50.6649 12.9022V11.3975C50.6649 11.3075 50.7365 11.236 50.8265 11.236H52.1441C52.2341 11.236 52.3057 11.3075 52.3057 11.3975V12.9022C52.3057 12.9922 52.2341 13.0637 52.1441 13.0637H50.8265C50.7365 13.0637 50.6649 12.9922 50.6649 12.9022ZM50.6649 24.5583V15.0714C50.6649 14.9814 50.7365 14.9098 50.8265 14.9098H52.1441C52.2341 14.9098 52.3057 14.9814 52.3057 15.0714V24.5583C52.3057 24.6483 52.2341 24.7198 52.1441 24.7198H50.8265C50.7365 24.7198 50.6649 24.6483 50.6649 24.5583Z" fill="white"/>
<path d="M58.1995 24.9436C57.3918 24.9436 56.6972 24.7636 56.1203 24.4036C55.5434 24.0436 55.0957 23.4806 54.7772 22.7167C54.461 21.9529 54.3018 20.9606 54.3018 19.7421C54.3018 18.5236 54.4634 17.6352 54.7864 16.8898C55.1095 16.1444 55.5572 15.5906 56.1295 15.2306C56.7018 14.8706 57.3664 14.6906 58.1257 14.6906C58.5618 14.6906 58.9657 14.7413 59.3372 14.8406C59.711 14.9398 60.0434 15.0967 60.3341 15.3067C60.6249 15.519 60.8834 15.7982 61.1072 16.1467H61.2203V11.4021C61.2203 11.3121 61.2918 11.2406 61.3818 11.2406H62.6995C62.7895 11.2406 62.861 11.3121 62.861 11.4021V24.5629C62.861 24.6529 62.7895 24.7244 62.6995 24.7244H61.6818C61.5987 24.7244 61.5295 24.6621 61.5226 24.5813L61.3887 23.3259H61.2572C60.9226 23.8729 60.4864 24.2813 59.951 24.5467C59.4157 24.8144 58.8318 24.9482 58.1972 24.9482L58.1995 24.9436ZM58.5918 23.5082C59.2126 23.5082 59.718 23.3721 60.1034 23.0975C60.4887 22.8252 60.7726 22.4259 60.9526 21.9044C61.1326 21.3829 61.2226 20.7367 61.2226 19.9636V19.6659C61.2226 18.9944 61.1534 18.429 61.0172 17.9698C60.881 17.5106 60.6941 17.1436 60.4587 16.869C60.2234 16.5967 59.9487 16.4029 59.6372 16.2898C59.3257 16.179 58.9957 16.1213 58.6495 16.1213C58.0403 16.1213 57.5418 16.2436 57.1564 16.4859C56.771 16.7282 56.4849 17.1067 56.298 17.6236C56.111 18.1406 56.0187 18.8075 56.0187 19.629V20.0213C56.0187 20.8659 56.118 21.5467 56.3164 22.0636C56.5149 22.5806 56.8034 22.9498 57.1841 23.1736C57.5626 23.3975 58.0334 23.5082 58.5918 23.5082Z" fill="white"/>
<path d="M69.0595 24.9438C68.0903 24.9438 67.2711 24.7592 66.6065 24.3946C65.9419 24.0277 65.4388 23.4646 65.0949 22.7077C64.7534 21.9507 64.5826 20.9861 64.5826 19.8161C64.5826 18.6461 64.7534 17.6677 65.0949 16.9153C65.4365 16.163 65.9442 15.6046 66.6157 15.2377C67.2872 14.8707 68.1272 14.6884 69.1334 14.6884C70.0542 14.6884 70.8249 14.8661 71.4457 15.2192C72.0665 15.5746 72.5372 16.103 72.8534 16.8046C73.1695 17.5061 73.3288 18.3877 73.3288 19.4446V20.0677C73.3288 20.1577 73.2572 20.2292 73.1672 20.2292H66.4472C66.3549 20.2292 66.2811 20.3077 66.2857 20.4C66.3203 21.1061 66.4334 21.6923 66.6249 22.1607C66.8303 22.6638 67.1372 23.0307 67.548 23.2615C67.9588 23.4923 68.4734 23.6053 69.0965 23.6053C69.5188 23.6053 69.888 23.5523 70.2065 23.4461C70.5226 23.34 70.7903 23.1877 71.0095 22.9892C71.2265 22.7907 71.3926 22.553 71.5034 22.2807C71.598 22.05 71.6557 21.8007 71.6811 21.5353C71.688 21.4523 71.7549 21.3853 71.8403 21.3853H73.1257C73.218 21.3853 73.2942 21.4638 73.2872 21.5561C73.2596 22.013 73.1626 22.4377 72.9965 22.83C72.8095 23.2707 72.5372 23.6469 72.1749 23.9584C71.8149 24.27 71.3719 24.5123 70.8503 24.6853C70.3288 24.8584 69.7311 24.9461 69.0595 24.9461V24.9438ZM66.4957 18.9946H71.4688C71.5588 18.9946 71.6326 18.9184 71.6303 18.8284C71.6188 18.353 71.5565 17.9492 71.4457 17.6146C71.3211 17.2407 71.1434 16.9361 70.9149 16.7007C70.6842 16.4653 70.4165 16.2946 70.1142 16.1884C69.8096 16.0823 69.4634 16.0292 69.078 16.0292C68.5057 16.0292 68.0211 16.1353 67.6242 16.3453C67.2272 16.5577 66.9226 16.8807 66.7103 17.3146C66.5165 17.7115 66.3919 18.2123 66.3342 18.8146C66.3249 18.9092 66.4011 18.9923 66.4957 18.9923V18.9946Z" fill="white"/>
<path d="M78.491 24.9437C77.8702 24.9437 77.3648 24.8306 76.9794 24.6091C76.594 24.3853 76.3148 24.0829 76.1394 23.7045C75.964 23.326 75.8787 22.906 75.8787 22.4445V17.0676C75.8787 16.9776 75.8071 16.906 75.7171 16.906H74.8263C74.7363 16.906 74.6648 16.8345 74.6648 16.7445V15.0714C74.6648 14.9814 74.7363 14.9099 74.8263 14.9099H75.8348C75.9133 14.9099 75.9802 14.8545 75.994 14.776L76.9863 12.2468C77.0002 12.1706 77.0671 12.1129 77.1456 12.1129H78.3087C78.3987 12.1129 78.4702 12.1845 78.4702 12.2745V14.7506C78.4702 14.8406 78.5417 14.9122 78.6317 14.9122H80.0994C80.1894 14.9122 80.261 14.9837 80.261 15.0737V16.7468C80.261 16.8368 80.1894 16.9083 80.0994 16.9083H78.6317C78.5417 16.9083 78.4702 16.9799 78.4702 17.0699V22.0176C78.4702 22.3153 78.5394 22.5437 78.6756 22.6983C78.8117 22.853 79.0356 22.9314 79.3471 22.9314H80.0994C80.1894 22.9314 80.261 23.0029 80.261 23.0929V24.5283C80.261 24.5999 80.2171 24.6622 80.1479 24.683C80.0256 24.7199 79.8894 24.7545 79.7371 24.7868C79.5387 24.8306 79.3263 24.8676 79.1025 24.8999C78.8787 24.9299 78.6733 24.946 78.4863 24.946L78.491 24.9437Z" fill="white"/>
<path d="M86.4524 24.9438C85.3839 24.9438 84.4747 24.7592 83.7293 24.3946C82.984 24.0277 82.4163 23.4623 82.0332 22.6984C81.6478 21.9346 81.4539 20.9723 81.4539 19.8161C81.4539 18.66 81.6478 17.6677 82.0332 16.9153C82.4186 16.163 82.984 15.6046 83.7293 15.2377C84.4747 14.8707 85.3816 14.6884 86.4524 14.6884C87.5232 14.6884 88.4624 14.873 89.2032 15.2377C89.944 15.6046 90.5047 16.163 90.8901 16.9153C91.2755 17.6677 91.4693 18.6346 91.4693 19.8161C91.4693 20.9977 91.2755 21.9323 90.8901 22.6984C90.5047 23.4623 89.9416 24.0277 89.2032 24.3946C88.4624 24.7615 87.5463 24.9438 86.4524 24.9438ZM86.4524 22.9292C87.0247 22.9292 87.4816 22.823 87.8232 22.613C88.1647 22.4007 88.4163 22.0777 88.5778 21.6438C88.7393 21.21 88.8201 20.6746 88.8201 20.04V19.5923C88.8201 18.9577 88.7393 18.4246 88.5778 17.9884C88.4163 17.5523 88.1647 17.2269 87.8232 17.01C87.4816 16.793 87.0247 16.6846 86.4524 16.6846C85.8801 16.6846 85.4416 16.793 85.1001 17.01C84.7586 17.2269 84.507 17.5546 84.3455 17.9884C84.1839 18.4246 84.1032 18.9577 84.1032 19.5923V20.04C84.1032 20.6746 84.1839 21.2077 84.3455 21.6438C84.507 22.08 84.7586 22.403 85.1001 22.613C85.4416 22.8253 85.8939 22.9292 86.4524 22.9292Z" fill="white"/>
<path d="M97.8849 24.9438C96.8164 24.9438 95.9072 24.7592 95.1618 24.3946C94.4164 24.0277 93.8488 23.4623 93.4657 22.6984C93.0803 21.9346 92.8864 20.9723 92.8864 19.8161C92.8864 18.66 93.0803 17.6677 93.4657 16.9153C93.8511 16.163 94.4164 15.6046 95.1618 15.2377C95.9072 14.8707 96.8141 14.6884 97.8849 14.6884C98.9557 14.6884 99.8949 14.873 100.636 15.2377C101.376 15.6046 101.937 16.163 102.323 16.9153C102.708 17.6677 102.902 18.6346 102.902 19.8161C102.902 20.9977 102.708 21.9323 102.323 22.6984C101.937 23.4623 101.374 24.0277 100.636 24.3946C99.8949 24.7615 98.9788 24.9438 97.8849 24.9438ZM97.8849 22.9292C98.4572 22.9292 98.9141 22.823 99.2557 22.613C99.5972 22.4007 99.8488 22.0777 100.01 21.6438C100.172 21.21 100.253 20.6746 100.253 20.04V19.5923C100.253 18.9577 100.172 18.4246 100.01 17.9884C99.8488 17.5523 99.5972 17.2269 99.2557 17.01C98.9141 16.793 98.4572 16.6846 97.8849 16.6846C97.3126 16.6846 96.8741 16.793 96.5326 17.01C96.1911 17.2269 95.9395 17.5546 95.778 17.9884C95.6164 18.4246 95.5357 18.9577 95.5357 19.5923V20.04C95.5357 20.6746 95.6164 21.2077 95.778 21.6438C95.9395 22.08 96.1911 22.403 96.5326 22.613C96.8741 22.8253 97.3264 22.9292 97.8849 22.9292Z" fill="white"/>
<path d="M104.803 24.5583V11.3975C104.803 11.3075 104.875 11.236 104.965 11.236H107.236C107.326 11.236 107.397 11.3075 107.397 11.3975V24.5583C107.397 24.6483 107.326 24.7198 107.236 24.7198H104.965C104.875 24.7198 104.803 24.6483 104.803 24.5583Z" fill="white"/>
<path d="M0 18C0 3.17727 3.1766 0 18 0C32.8234 0 36 3.17727 36 18C36 32.8227 32.8234 36 18 36C3.1766 36 0 32.8227 0 18Z" fill="white"/>
<path d="M24.7609 29.977C23.7202 30.5839 22.4971 31.0685 21.3317 31.3754L18.0317 23.0285L14.704 31.3754C14.1225 31.2185 13.4417 30.9854 12.8856 30.7524C12.3317 30.5216 11.7894 30.3162 11.2725 30.0116L14.0671 23.017C14.2332 22.6131 14.5125 22.2693 14.8725 22.027C15.2325 21.7847 15.7217 21.6785 16.1556 21.6762L19.8709 21.6554C20.3094 21.6554 20.8032 21.7754 21.1679 22.0201C21.5325 22.2647 21.8163 22.6131 21.9848 23.0216L24.7609 29.977Z" fill="#141C25"/>
<path d="M24.7794 6.01387C23.7386 5.40694 22.5155 4.92233 21.3501 4.6154L18.0501 12.9623L14.7224 4.6154C14.1409 4.77233 13.4601 5.0054 12.904 5.23848C12.3501 5.46925 11.7732 5.74617 11.2563 6.0531L14.0855 12.9762C14.2517 13.38 14.5309 13.7239 14.8909 13.9662C15.2509 14.2085 15.7401 14.3146 16.174 14.3169L19.8894 14.3377C20.3278 14.3377 20.8217 14.2177 21.1863 13.9731C21.5509 13.7285 21.8348 13.38 22.0032 12.9716L24.7794 6.01617V6.01387Z" fill="#141C25"/>
<path d="M29.9996 11.2522C30.6065 12.293 31.0912 13.5161 31.3981 14.6814L23.0512 17.9814L31.3981 21.3091C31.2412 21.8907 31.0081 22.5714 30.775 23.1276C30.5442 23.6814 30.3389 24.2237 30.0342 24.7407L23.0396 21.9461C22.6358 21.7799 22.2919 21.5007 22.0496 21.1407C21.8073 20.7807 21.7012 20.2914 21.6989 19.8576L21.6781 16.1422C21.6781 15.7037 21.7981 15.2099 22.0427 14.8453C22.2873 14.4807 22.6358 14.1968 23.0442 14.0284L29.9996 11.2522Z" fill="#141C25"/>
<path d="M6.03626 11.2338C5.42934 12.2746 4.94473 13.4977 4.6378 14.6631L12.9847 17.9631L4.6378 21.2908C4.79473 21.8723 5.0278 22.5531 5.26088 23.1092C5.49165 23.6631 5.76857 24.24 6.07549 24.7569L12.9986 21.9277C13.4024 21.7615 13.7463 21.4823 13.9886 21.1223C14.2309 20.7623 14.337 20.2731 14.3393 19.8392L14.3601 16.1238C14.3601 15.6854 14.2401 15.1915 13.9955 14.8269C13.7509 14.4623 13.4024 14.1785 12.994 14.01L6.03626 11.2338Z" fill="#141C25"/>
</svg>
