<svg width="311" height="297" viewBox="0 0 311 297" fill="none" xmlns="http://www.w3.org/2000/svg">
<g clip-path="url(#clip0_1268_3740)">
<path d="M114.77 7.489C103.353 9.55266 92.1415 12.331 81.3106 16.5822C78.9351 17.5156 78.5141 18.4891 79.2206 20.921C83.7521 36.5043 88.1005 52.1422 92.5003 67.7655C92.654 68.3088 92.6869 68.8848 92.7748 69.45C92.815 69.6432 92.8553 69.8255 92.8956 69.9969C93.2543 71.5756 93.5764 72.4616 93.7009 73.2273C93.8912 74.3904 94.1547 75.5425 94.4768 76.6801C97.4015 86.9219 99.9381 97.1089 103.097 107.723C100.461 106.618 98.5398 105.09 96.5157 103.799C77.6357 91.7966 58.7447 79.8084 39.8793 67.7801C36.9657 65.9206 34.0082 64.1267 31.1275 62.2162C29.8574 61.374 28.5616 60.5281 26.9913 60.2947C25.3405 60.9693 24.7768 62.61 23.8984 63.9116C17.9796 72.6694 13.0491 81.9559 9.09964 91.7602C8.47738 93.3097 8.39318 94.265 10.0294 95.2932C31.4093 108.707 52.7125 122.234 74.1108 135.622C80.6188 139.695 87.5917 139.181 94.5757 136.822C96.4278 135.538 98.4922 134.568 100.165 133.023C109.938 125.194 119.411 116.998 129.246 109.239C136.637 102.41 138.811 94.0499 136.593 84.3988C131.029 64.7976 125.769 45.1162 120.377 25.4677C119.034 20.5783 117.672 15.6963 116.369 10.796C116.051 9.60371 115.754 8.37134 114.766 7.48535L114.77 7.489Z" stroke="#BE79FF" stroke-miterlimit="10"/>
<path d="M217.504 107.427C226.329 104.875 235.143 102.275 243.987 99.7852C249.964 98.1044 255.802 95.9313 261.933 94.8084C263.068 95.2532 263.313 96.3288 263.694 97.2986C267.252 106.428 269.862 115.835 271.67 125.45C272.157 128.042 273.094 130.642 272.512 133.365C271.728 134.335 270.561 134.517 269.466 134.842C261.381 137.237 253.244 139.436 245.121 141.693C233.965 144.788 222.925 148.318 211.604 150.826C210.817 151.162 209.99 151.311 209.151 151.417C208.273 151.661 207.38 151.865 206.542 152.237C205.334 153.182 203.8 152.992 202.435 153.346C191.073 156.273 182.138 152.875 175.487 143.151C171.973 138.018 168.119 133.11 164.334 128.166C160.506 123.16 157.054 117.866 152.815 113.174C150.271 110.975 149.455 107.814 148.174 104.912C147.354 102.038 147.116 99.1289 147.248 96.1282C147.493 90.6482 149.763 85.9667 152.596 81.4565C155.436 76.0385 158.397 70.6824 161.402 65.3592C163.69 61.3084 165.432 56.9223 168.47 53.3017C169.225 52.1095 170.044 50.9537 170.725 49.7213C176.014 40.0957 181.26 30.4483 186.578 20.8373C187.087 19.9221 187.167 18.5184 188.657 18.3726C189.799 18.8356 191.029 19.0033 192.164 19.5502C200.176 23.426 207.771 27.9763 214.887 33.3214C216.827 35.2392 219.971 35.9866 220.605 39.1696C218.643 43.9715 215.824 48.3249 213.342 52.8533C204.056 69.8147 194.656 86.7214 185.337 103.665C182.72 108.426 180.033 113.155 177.526 117.953C178.192 118.402 178.628 118.103 179.056 117.975C190.561 114.566 205.224 111.132 216.732 107.737L217.512 107.424L259.342 30.8493" stroke="#BE79FF" stroke-miterlimit="10"/>
<path d="M218.858 227.718C203.291 216.867 185.224 207.566 168.891 196.828C171.713 207.015 174.528 216.543 177.244 226.095C182.724 245.346 188.2 264.601 193.69 283.849C194.568 286.933 194.279 287.498 191.413 288.694C188.404 289.952 185.392 291.203 182.153 291.793C181.014 292.147 179.766 292.209 178.825 293.07C172.746 294.262 166.651 295.396 160.59 296.683C158.58 297.109 157.789 296.599 157.24 294.561C154.51 284.439 151.666 274.343 148.723 264.28C146.669 257.262 145.154 250.086 142.497 243.246C141.091 239.845 141.248 240.322 140.564 237.974C138.39 230.489 135.813 223.095 134.737 215.325C134.36 207.5 136.977 200.777 142.797 195.589C147.284 191.589 152.028 187.852 156.863 184.25C157.244 184.02 157.658 183.896 158.093 183.827C160.216 182.197 162.358 180.589 164.462 178.937C171.662 173.279 178.196 166.428 188.104 165.64C188.478 165.611 188.858 165.622 189.228 165.658C190.187 165.757 189.905 165.793 191.754 166.081C194.217 166.595 196.516 167.474 198.672 168.809C218.723 181.245 238.595 193.966 258.547 206.56C260.619 207.869 263.13 208.656 264.452 210.975C264.616 212.288 263.994 213.389 263.496 214.523C260.001 222.515 255.718 230.095 251.241 237.562C249.825 239.925 248.507 242.408 246.348 244.253C244.898 244.665 244.031 243.523 243.039 242.904C235.509 238.204 228.035 233.42 220.495 228.739L218.855 227.721L218.858 227.718Z" stroke="#BE79FF" stroke-miterlimit="10"/>
<path d="M93.9168 189.204C80.2052 214.18 66.4973 239.155 52.7747 264.123C52.2037 265.163 51.64 265.972 52.987 266.997C62.5478 274.252 72.5844 280.746 83.3458 286.102C83.5801 286.219 83.9058 286.157 84.1877 286.178C86.091 285.103 86.6767 283.046 87.6064 281.333C96.1862 265.531 104.891 249.791 113.5 234.003C116.432 228.629 119.283 223.211 122.387 217.928C126.666 208.663 125.615 199.887 119.964 191.527C112.01 181.103 104.499 170.354 96.739 159.784C96.512 159.453 96.2485 159.146 95.9776 158.851C94.5903 157.094 92.9688 155.573 91.2668 154.126C89.8429 152.751 87.9835 152.102 86.3107 151.14C83.6569 149.71 80.7433 149.663 77.8443 149.539C54.4548 155.231 31.6107 162.825 8.44079 169.293C6.13112 169.939 3.83977 170.657 1.52278 171.273C0.395396 171.572 0.036684 172.05 0.219701 173.308C1.9913 185.489 5.49423 197.186 9.91225 208.642C10.3808 209.852 11.1824 209.947 12.1707 209.739C13.8544 209.382 15.5162 208.948 17.189 208.543C18.1626 207.694 19.3742 207.533 20.5931 207.391C45.2857 200.85 70.3224 192.635 95.0918 185.65C94.9747 186.842 95.0113 186.692 93.9095 189.208L93.9168 189.204Z" stroke="#BE79FF" stroke-miterlimit="10"/>
<path d="M187.222 165.72L192.969 164.4C201.582 162.712 210.268 161.298 218.767 159.15C227.098 157.043 234.247 158.72 241.344 163.288C261.242 176.101 281.337 188.606 301.322 201.28C301.992 201.703 303.24 201.714 303.141 203.008C302.252 203.832 301.125 204.08 299.986 204.306C290.008 206.275 280.037 208.284 270.059 210.26C268.518 210.567 266.963 210.778 265.4 210.898L264.463 210.971" stroke="#BE79FF" stroke-miterlimit="10"/>
<path d="M188.65 18.3762L227.211 10.5481C227.211 10.5481 242.464 16.9761 259.334 30.8566L220.597 39.1732" stroke="#BE79FF" stroke-miterlimit="10"/>
<path d="M261.933 94.8119L300.842 87.25C300.842 87.25 310.67 110.92 310.817 125.676L272.512 133.369" stroke="#BE79FF" stroke-miterlimit="10"/>
<path d="M303.138 203.008C303.138 203.008 294.349 224.841 284.781 236.676L246.355 244.249" stroke="#BE79FF" stroke-miterlimit="10"/>
<path d="M181.117 292.063C214.517 288.68 232.933 278.792 232.933 278.792L218.851 230.58L217.72 226.934" stroke="#BE79FF" stroke-miterlimit="10"/>
<path d="M142.504 243.243L122.852 279.083L84.1912 286.179" stroke="#BE79FF" stroke-miterlimit="10"/>
<path d="M168.467 53.3052L153.763 0.211426L114.77 7.48894" stroke="#BE79FF" stroke-miterlimit="10"/>
<path d="M26.9913 60.2948L65.3186 52.4777L92.8955 69.9933" stroke="#BE79FF" stroke-miterlimit="10"/>
<path d="M152.812 113.177L138.584 124.691C138.584 124.691 133.745 129.074 123.624 131.046L94.5757 136.825" stroke="#BE79FF" stroke-miterlimit="10"/>
<path d="M158.104 183.823L136.164 154.363C136.164 154.363 128.463 140.468 111.304 143.319L77.8517 149.543" stroke="#BE79FF" stroke-miterlimit="10"/>
<path d="M93.917 189.204C93.917 189.204 46.4096 204.912 17.1965 208.539" stroke="#BE79FF" stroke-miterlimit="10"/>
</g>
<defs>
<clipPath id="clip0_1268_3740">
<rect width="311" height="297" fill="white" transform="matrix(-1 0 0 1 311 0)"/>
</clipPath>
</defs>
</svg>
