<svg viewBox="0 0 800 400" xmlns="http://www.w3.org/2000/svg">
  <!-- White Background -->
  <rect width="800" height="400" fill="#FFFFFF"/>
  
  <!-- Subtle grid pattern -->
  <pattern id="smallGrid" width="10" height="10" patternUnits="userSpaceOnUse">
    <path d="M 10 0 L 0 0 0 10" fill="none" stroke="#F0F0F0" stroke-width="1"/>
  </pattern>
  <rect width="800" height="400" fill="url(#smallGrid)"/>

  <!-- Main content area with subtle shadow -->
  <rect x="100" y="50" width="600" height="300" rx="20" fill="#FFFFFF" filter="drop-shadow(0 4px 6px rgba(0, 0, 0, 0.1))"/>
  
  <!-- Decorative accent shapes -->
  <circle cx="130" cy="80" r="15" fill="#3B82F6" opacity="0.8"/>
  <circle cx="670" cy="320" r="15" fill="#3B82F6" opacity="0.8"/>
  
  <!-- Customer icon group -->
  <g transform="translate(180, 120)">
    <circle cx="0" cy="0" r="40" fill="#F0F7FF"/>
    <path d="M-15,-5 A20,20 0 0,1 15,-5 L15,15 A20,20 0 0,1 -15,15 Z" fill="#3B82F6" opacity="0.9"/>
    <circle cx="0" cy="-15" r="10" fill="#3B82F6" opacity="0.9"/>
  </g>
  
  <!-- Real-time data visualization -->
  <g transform="translate(400, 130)">
    <!-- Real-time chart -->
    <rect x="-120" y="-30" width="240" height="100" rx="10" fill="#F0F7FF"/>
    
    <!-- Line graph -->
    <path d="M-100,40 L-70,20 L-40,30 L-10,0 L20,10 L50,-10 L80,0 L110,20" 
          stroke="#3B82F6" 
          stroke-width="3"
          fill="none"
          stroke-linecap="round"/>
          
    <!-- Pulse markers -->
    <circle cx="-70" cy="20" r="4" fill="#3B82F6"/>
    <circle cx="-10" cy="0" r="4" fill="#3B82F6"/>
    <circle cx="50" cy="-10" r="4" fill="#3B82F6"/>
    <circle cx="110" cy="20" r="4" fill="#3B82F6"/>
  </g>
  
  <!-- AI analysis element -->
  <g transform="translate(620, 120)">
    <circle cx="0" cy="0" r="40" fill="#F0F7FF"/>
    <!-- AI brain pattern -->
    <path d="M-15,-15 Q0,-25 15,-15 Q25,0 15,15 Q0,25 -15,15 Q-25,0 -15,-15" 
          stroke="#3B82F6" 
          stroke-width="3"
          fill="none"/>
    <!-- Connection nodes -->
    <circle cx="-15" cy="-15" r="3" fill="#3B82F6"/>
    <circle cx="15" cy="-15" r="3" fill="#3B82F6"/>
    <circle cx="15" cy="15" r="3" fill="#3B82F6"/>
    <circle cx="-15" cy="15" r="3" fill="#3B82F6"/>
  </g>
  
  <!-- Connection lines -->
  <path d="M230,120 C270,150 330,180 370,130" 
        stroke="#3B82F6" 
        stroke-width="2"
        fill="none"
        stroke-dasharray="4,4"/>
  
  <path d="M510,130 C550,150 550,120 570,120" 
        stroke="#3B82F6" 
        stroke-width="2"
        fill="none"
        stroke-dasharray="4,4"/>
  
  <!-- Insight cards at bottom -->
  <g transform="translate(400, 270)">
    <rect x="-180" y="-20" width="360" height="40" rx="10" fill="#F0F7FF"/>
    <!-- Insight indicators -->
    <circle cx="-140" cy="0" r="10" fill="#3B82F6" opacity="0.8"/>
    <circle cx="-70" cy="0" r="10" fill="#3B82F6" opacity="0.8"/>
    <circle cx="0" cy="0" r="10" fill="#3B82F6" opacity="0.8"/>
    <circle cx="70" cy="0" r="10" fill="#3B82F6" opacity="0.8"/>
    <circle cx="140" cy="0" r="10" fill="#3B82F6" opacity="0.8"/>
  </g>
</svg>
